<svg id="Layer_1" data-name="Layer 1" xmlns="http://www.w3.org/2000/svg" viewBox="0 0 52.55781 40.92001"><title>Artboard 2 copy</title><path style="fill: var(--copy)" d="M50.90742,21.72608c0-3.60642-4.11172-6.73859-11.28155-8.59495l-.48977,1.89459c6.05409,1.56728,9.81461,4.13442,9.81461,6.70036,0,3.9624-9.10982,8.20553-22.67181,8.20553S3.6071,25.68848,3.6071,21.72608c0-2.54444,3.71631-5.10083,9.69754-6.6705l-.49694-1.8922c-7.091,1.85995-11.15731,4.98137-11.15731,8.5627,0,3.63987,4.42574,6.7695,11.2145,8.56031l-1.89922,4.61345,1.811.74541,2.01644-4.89835a54.963,54.963,0,0,0,10.50747,1.12171v4.78128h1.95671V31.86861a54.96315,54.96315,0,0,0,10.50881-1.122l2.01749,4.89865,1.80858-.74541-1.9-4.6133C46.48123,28.49573,50.90742,25.3661,50.90742,21.72608Z"/></svg>
