<svg xmlns="http://www.w3.org/2000/svg" viewBox="0 0 396 392.32456"><defs><style>.a{fill:#eb212e;}</style></defs><title>Artboard 1 copy</title><path class="a" d="M157.45877,309.67881a18.4046,18.4046,0,0,1-3.44333-.339c-3.71017-.70548-7.57752-1.17519-11.31694-1.63028-3.31539-.40209-6.74227-.8188-10.11981-1.40274-6.70754-1.15874-11.63677-5.53967-13.88115-12.33769-4.61669-13.98533-4.88171-26.48385-.80966-38.20835,5.22166-15.02893,6.97439-30.45081,7.99971-48.98339.64517-11.61118,3.012-28.43032,16.08167-40.3778,6.28536-5.7471,16.14747-7.424,25.73177-4.38458,8.90989,2.8265,15.219,9.025,16.8767,16.58154,2.04517,9.323,2.72323,18.99863,3.37754,28.3563l.1188,1.70156a203.97559,203.97559,0,0,1-.02742,21.97591c-.18642,4.942-.57023,9.9014-1.01618,15.643-.2175,2.7936-.44961,5.79555-.68538,9.1082l-.07311.46788c-.75117,3.0778-1.37075,6.35938-2.02688,9.83287-2.142,11.35622-4.571,24.22759-12.843,35.52076C168.26943,305.4834,164.18825,309.67881,157.45877,309.67881Zm.88459-143.51687a18.5923,18.5923,0,0,0-12.58716,4.38092c-8.79293,8.03992-13.32555,19.652-14.26131,36.54518-1.05274,19.005-2.86762,34.86829-8.30311,50.515-3.70286,10.66171-3.436,21.65789.8389,34.606,1.60652,4.87165,4.805,7.75389,9.50389,8.56537,3.23863.55927,6.59606.96775,9.842,1.36162,3.8308.46605,7.79318.94764,11.688,1.68785,4.83053.91749,7.92478-.63329,11.80857-5.93719,7.519-10.26876,9.8219-22.47577,11.85427-33.24623.65429-3.46343,1.27206-6.73953,2.0342-9.89135.23029-3.23315.45874-6.17112.67075-8.90989.44047-5.68222.82246-10.58952,1.00339-15.41914a199.8711,199.8711,0,0,0,.03839-21.37l-.12063-1.70521c-.63968-9.15572-1.30313-18.624-3.25874-27.54573-1.22271-5.57257-6.11721-10.22033-13.0916-12.43181A25.41294,25.41294,0,0,0,158.34336,166.16194ZM147.82329,299.0701a16.20643,16.20643,0,0,1-9.16211-3.05129c-4.4321-3.05587-7.33444-8.9501-8.5736-13.44709-2.217-8.0518-1.63028-16.63271,1.84595-27.00565,4.21095-12.57437,8.6467-27.28437,7.96316-42.74554-.40209-9.08078,3.20025-17.40765,11.34069-26.20514a9.15271,9.15271,0,0,1,8.29031-2.9398,9.60431,9.60431,0,0,1,7.14984,5.64384c4.96944,11.051,9.28457,22.03439,7.52818,34.88017-1.01619,7.43313-1.11488,14.99238-1.2282,23.74509-.05483,4.21369-.11149,8.56994-.27415,13.31l-.01645.48342-.17728.45052c-.817,2.07075-1.654,4.38733-2.54595,6.85834a164.52721,164.52721,0,0,1-8.72895,20.94052c-2.40887,4.57923-6.04045,7.668-10.22764,8.69971A13.33529,13.33529,0,0,1,147.82329,299.0701Zm10.23312-109.89962a3.65573,3.65573,0,0,0-2.69946,1.25743c-7.053,7.62413-10.18378,14.66066-9.853,22.144.72924,16.42344-3.87466,31.7247-8.24828,44.77792-3.10338,9.26537-3.66265,16.80634-1.75456,23.73047,1.22637,4.454,3.71748,8.50323,6.3475,10.31628a9.63931,9.63931,0,0,0,7.81511,1.83863c2.64464-.65156,4.9274-2.67845,6.60338-5.86133a160.513,160.513,0,0,0,8.41642-20.236c.848-2.34581,1.64673-4.55546,2.42531-6.55493.14805-4.497.20288-8.67047.25405-12.71145.117-8.93822.21567-16.65738,1.27937-24.43229,1.55717-11.38821-2.28824-21.14706-7.08588-31.817a3.95692,3.95692,0,0,0-2.93524-2.40521A3.496,3.496,0,0,0,158.05641,189.17048Z"/><path class="a" d="M82.45667,299.9355q-.56475,0-1.16971-.05117c-6.978-.59948-10.9779-4.0355-12.22711-10.50454a207.52225,207.52225,0,0,1-3.95416-46.78561c.6342-18.90085.392-38.18094.15626-56.82591-.10143-8.07008-.20287-16.14107-.23759-24.20932-.01828-4.29868.38838-8.55806,3.46709-10.60688,3.06683-2.04151,7.23757-.72559,10.913.83433,2.64647,1.12036,4.05378,4.7227,4.20913,6.9223.276,3.92218.39295,7.89188.50443,11.73.09139,3.09607.18643,6.29815.36371,9.42255.159,2.842.44961,5.76081.72924,8.58365a122.68275,122.68275,0,0,1,.87,15.05635c-.29608,12.21523-.87362,24.61231-1.43289,36.60092-.33629,7.21746-.67258,14.43585-.95222,21.65606a25.41855,25.41855,0,0,0,.21567,3.89111c.30522-.50627.59033-1.00888.8389-1.517,11.45949-23.34026,16.43623-42.5774,16.13467-62.37564-.1718-11.2822,3.60782-22.56624,7.26316-33.47743.74569-2.22427,1.48772-4.43667,2.18955-6.63444,2.12558-6.64815,8.4749-5.07452,11.88716-4.22557a19.44975,19.44975,0,0,0,3.0577.605l1.32323.0859.92114,1.19072c1.08564,1.50875,1.90444,6.38314,1.23,8.93274-1.15326,4.3526-2.48017,8.71159-3.76318,12.928-1.84229,6.0505-3.74672,12.30753-5.1193,18.51612a39.5499,39.5499,0,0,0-.37833,10.13078c.10052,2.24346.20287,4.56277.095,6.8766a93.97036,93.97036,0,0,1-11.21458,39.90444c-4.9073,9.35584-9.13835,19.33309-13.23051,28.98136q-1.305,3.08145-2.61905,6.15651C91.19476,294.84,89.01252,299.93459,82.45667,299.9355ZM72.23086,155.513a1.18558,1.18558,0,0,0-.62872.11331c-.10144.06763-.98511.80326-.96318,5.90886.03472,8.05271.13616,16.10726.23759,24.16271.23577,18.70895.47977,38.05392-.15992,57.08453a202.09851,202.09851,0,0,0,3.85547,45.53275c.77676,4.02178,2.65926,5.58536,7.19371,5.97465,2.82558.24125,3.81618-.60313,5.6-4.772q1.31319-3.065,2.61174-6.13914c4.136-9.75245,8.41277-19.83753,13.4279-29.39716A88.49383,88.49383,0,0,0,113.984,216.42286c.095-2.057.00183-4.14881-.09687-6.363a44.2455,44.2455,0,0,1,.50444-11.59383c1.4201-6.42243,3.35743-12.78637,5.23079-18.94014,1.2684-4.16709,2.58067-8.47673,3.70652-12.72881a10.17837,10.17837,0,0,0-.212-3.41408c-.753-.14439-1.506-.33173-2.24438-.51449-4.666-1.15966-4.81591-.67624-5.18693.48524-.70914,2.22245-1.46031,4.46043-2.21331,6.70938-3.50547,10.46432-7.12974,21.285-6.97256,31.60772.31436,20.73218-4.83784,40.75887-16.70856,64.93529a37.07558,37.07558,0,0,1-2.34307,3.93863c-.34726.53094-.69452,1.06188-1.02715,1.60013l-.93029,1.51057-6.41512-.70274-.21383-2.27911c-.08408-.88825-.19922-1.77741-.31436-2.66657a38.56877,38.56877,0,0,1-.46242-6.46538c.27965-7.23575.61777-14.46875.95406-21.70084.55927-11.95845,1.135-24.32263,1.42741-36.47481a116.72112,116.72112,0,0,0-.84256-14.3664c-.28511-2.88132-.5812-5.86043-.74934-8.82125-.18094-3.20025-.276-6.44071-.36736-9.57425-.11149-3.78236-.22663-7.69358-.49347-11.50153a4.56348,4.56348,0,0,0-.923-2.1996A13.95816,13.95816,0,0,0,72.23086,155.513Z"/><path class="a" d="M325.0689,330.22a10.35846,10.35846,0,0,1-1.22271-.07493q-6.09162-.72238-12.1869-1.42284l-8.13862-.94582.01462-.13251q-.60039-.06168-1.19895-.12154c-3.17283-.32075-6.45169-.65156-9.68665-1.26383-4.69346-.88825-8.65219-1.86971-9.54044-4.89907a12.65958,12.65958,0,0,1,4.42114-13.9899c8.272-6.628,14.689-12.2134,20.19758-17.57762,4.44306-4.32609,9.45271-9.418,12.70048-15.11848,1.81853-3.18837,2.42714-7.48248,3.01382-11.635.1517-1.06736.30157-2.12924.47154-3.171a31.15311,31.15311,0,0,0,.24126-4.91369,26.48712,26.48712,0,0,1,.75848-7.73835c1.92088-6.46082.77859-12.791-.43316-19.493a89.821,89.821,0,0,1-1.46214-10.4561c-.15169-.84073-2.43993-3.13628-3.977-3.5009a6.35776,6.35776,0,0,0-3.80155,2.05887,78.19356,78.19356,0,0,0-4.3791,16.84289c-.55378,3.40952-.83341,6.9817-1.10391,10.436-.23942,3.05769-.488,6.21865-.9248,9.343-.29243,2.08172-2.87127,7.01368-6.16656,6.79893a13.05344,13.05344,0,0,1-8.33966-3.90938c-2.05978-2.32846-2.03785-6.18758-1.84229-8.28118.28329-3.02388.54282-6.05141.80418-9.07986.8718-10.13717,1.77466-20.61978,3.55847-30.83462,1.89164-10.828,7.85167-18.23284,17.23676-21.413a21.67966,21.67966,0,0,1,19.642,2.55874c5.589,4.03093,8.64122,10.58038,8.59553,18.44211-.03656,6.34475-.159,12.78729-.27781,19.01782-.18094,9.57242-.36919,19.472-.24856,29.1824.24125,19.376-8.05637,36.05171-25.36441,50.98012-.64334.5547-1.3214,1.07832-2.00129,1.60012a18.93921,18.93921,0,0,0-3.0248,2.66475,5.36386,5.36386,0,0,0-.91932,1.75821,5.021,5.021,0,0,0,1.81854.71737c3.118.47245,6.37491.732,9.524.98328,1.25561.09961,2.50939.20013,3.76318.31253,2.65012.23851,4.58014,1.17063,5.7334,2.76892a6.6784,6.6784,0,0,1,.8389,5.65207l-.17.76214C331.47671,325.48542,330.44408,330.22,325.0689,330.22Zm-15.37984-7.37921,2.61722.30339q6.10258.70731,12.20153,1.42467c1.283.14987,1.3872.1654,1.99764-2.63824l.1919-.8517a2.11909,2.11909,0,0,0,.06946-1.08472h0c-.00185,0-.33264-.33629-1.68146-.45692-1.23368-.11148-2.46918-.21018-3.70469-.30887-3.24777-.25862-6.6052-.52637-9.92059-1.029-2.02689-.30705-5.39163-1.69516-6.353-4.25847-1.018-2.70952.848-5.9975,1.97754-7.35729a23.455,23.455,0,0,1,3.924-3.5274c.594-.45692,1.18981-.91292,1.75456-1.39908,16.19681-13.97163,23.63725-28.79768,23.41611-46.6595-.12063-9.79906.06762-19.7425.25039-29.35878.117-6.21134.23942-12.6356.276-18.9438.03472-5.99567-2.18955-10.91667-6.26526-13.85557a15.85788,15.85788,0,0,0-14.55556-1.79568c-7.42582,2.5167-11.97124,8.25741-13.50831,17.0613-1.74177,9.97451-2.63367,20.33374-3.49451,30.35028-.26318,3.04308-.52454,6.08523-.80965,9.12282-.20287,2.17127.15352,3.69281.45874,4.03732a7.21262,7.21262,0,0,0,3.73576,1.91906,5.56874,5.56874,0,0,0,1.00522-1.867c.413-2.95443.6543-6.02948.88642-9.00219.27963-3.56944.5684-7.2595,1.16057-10.89839a83.60649,83.60649,0,0,1,4.72453-18.07018c1.3214-3.27518,6.90859-6.19671,10.29161-5.39437,3.54568.84073,8.0655,4.985,8.28665,8.623a84.31791,84.31791,0,0,0,1.38355,9.79905c1.27388,7.0539,2.59163,14.349.28877,22.092a22.07551,22.07551,0,0,0-.52454,6.12726,35.80439,35.80439,0,0,1-.31436,5.82113c-.16266,1.00613-.30705,2.03054-.45326,3.06135-.66162,4.67426-1.347,9.50845-3.69555,13.6271-3.60965,6.33562-8.94462,11.76746-13.66,16.36131-5.642,5.49306-12.18873,11.19265-20.60515,17.93584a6.96725,6.96725,0,0,0-2.6684,7.56838,22.20245,22.20245,0,0,0,5.32218,1.42375c2.99372.56658,6.0112.87089,9.20414,1.19347,1.35065.13616,2.7013.27232,4.04829.4295l2.758.32076Zm.54647-11.115Z"/><path class="a" d="M168.87257,145.72859c-4.359,0-8.70154-1.79112-12.68769-5.31121-5.21434-4.60573-10.77594-11.2091-7.47151-21.4733a18.3265,18.3265,0,0,0-.24491-9.96811c-3.10887-11.12777,2.73419-18.29863,7.39841-22.72433,1.43472-1.36253,2.74881-2.8795,4.13967-4.48511a48.44266,48.44266,0,0,1,6.59423-6.671,33.47875,33.47875,0,0,1,8.34332-4.37544c.848-.34087,1.623-.64974,2.26448-.95588l.91383-.435.98146.24856c6.67465,1.69151,10.84722,3.92127,12.41536,10.31354a63.53666,63.53666,0,0,0,6.11539,15.02985c4.07753,7.52,1.623,13.91405-1.241,19.82017-2.058,4.24476-4.39189,9.057-5.1851,13.78154-1.53159,9.10728-8.537,12.42359-14.1681,15.08742l-.86083.40848A16.89284,16.89284,0,0,1,168.87257,145.72859Zm9.78351-70.46308c-.499.21292-1.0436.43316-1.61748.66436a29.06563,29.06563,0,0,0-6.97988,3.58954,43.49792,43.49792,0,0,0-5.80833,5.92439c-1.41827,1.63668-2.88407,3.32911-4.51985,4.87988-5.97463,5.67035-7.67254,10.637-5.85583,17.14263a23.736,23.736,0,0,1,.18276,13.19944c-2.16761,6.73039.62872,10.93769,5.84489,15.54342,3.13263,2.76983,8.08561,5.494,13.86105,2.7415l.87545-.41488c5.35873-2.5368,9.98822-4.72635,11.03182-10.94317.92663-5.51957,3.447-10.71655,5.67126-15.30126,2.92062-6.02126,3.93132-9.94709,1.358-14.69446a69.03276,69.03276,0,0,1-6.63444-16.3677C185.31611,78.17516,184.03857,76.73861,178.65608,75.26551Z"/><path class="a" d="M227.32694,318.58231a11.97579,11.97579,0,0,1-3.07415-.446,47.23471,47.23471,0,0,0-8.34331-1.16057c-1.3671-.11057-2.73419-.22114-4.0885-.37924l-2.87675-.33446.011-.07585q-1.54347-.18367-3.09059-.36827c-4.73-.56658-9.619-1.15144-14.424-1.63211a7.32314,7.32314,0,0,1-5.41174-2.57611A7.17572,7.17572,0,0,1,184.925,305.901c.71462-4.45221,1.37258-8.9172,2.03054-13.38129,1.38355-9.37777,2.81279-19.07448,4.76474-28.54089a249.49945,249.49945,0,0,0,5.47753-54.24616c-.13342-9.88587,1.92088-19.81012,3.90938-29.40813.4094-1.97662.8188-3.94868,1.20626-5.91525a6.25072,6.25072,0,0,1,2.7013-4.3398c2.26083-1.40822,4.81774-.71736,6.87569-.16449a13.03576,13.03576,0,0,0,1.87154.41853,6.83681,6.83681,0,0,1,4.91643,2.32937c1.67049,2.03785,1.58642,4.79672,1.37806,6.69384-.3637,3.28615-.77676,6.57321-1.18981,9.86211-1.17336,9.33756-2.38694,18.99314-2.3449,28.39011.095,21.25763-4.44672,41.88928-8.83861,61.841l-.19922.90561c-1.68145,7.64423-2.8402,13.66366-1.23,15.83311,1.58642,2.1402,7.48065,2.75978,15.01979,3.34646a56.72387,56.72387,0,0,1,6.73862,1.02441c2.00861.40483,4.85612,1.22728,6.3804,3.6791a7.65219,7.65219,0,0,1,.605,6.18758l-.05118.19282c-.6872,2.6026-1.46762,5.55246-4.10312,7.0813A6.857,6.857,0,0,1,227.32694,318.58231Zm-12.16863-7.30155c.40026.03382.80235.0658,1.20261.0987a52.122,52.122,0,0,1,9.343,1.33237c1.60835.43133,2.18224.201,2.323.12154.61958-.35914,1.10209-2.18863,1.49138-3.65808l.05118-.19648a2.65887,2.65887,0,0,0,.05483-1.78563c-.12611-.20287-.64517-.721-2.72323-1.14047a51.64158,51.64158,0,0,0-6.06238-.92937c-9.86577-.76853-16.07436-1.52884-19.0955-5.6-2.93889-3.96147-2.13289-9.51576.2577-20.384l.19922-.90652c4.32609-19.652,8.7984-39.97389,8.707-60.60828-.04387-9.76159,1.19347-19.60085,2.38876-29.1157.4094-3.26056.8188-6.52021,1.17885-9.77712.223-2.01409-.10052-2.47375-.1389-2.51945a1.87317,1.87317,0,0,0-1.06736-.29608,16.68653,16.68653,0,0,1-2.83837-.58942,10.605,10.605,0,0,0-2.41618-.47154,2.76433,2.76433,0,0,0-.19191.64151c-.39295,1.98394-.80417,3.97336-1.21723,5.96643-1.92636,9.30193-3.91852,18.921-3.79241,28.19272a255.09774,255.09774,0,0,1-5.5945,55.45608c-1.91723,9.31015-3.3355,18.92644-4.70625,28.22654-.66162,4.48784-1.32506,8.97569-2.04151,13.45165a2.60839,2.60839,0,0,0,.00731,1.39451,2.90528,2.90528,0,0,0,1.52245.414c4.85978.48616,9.77621,1.07467,14.53181,1.644q2.97178.35638,5.94723.70548l2.6812.31162Z"/><path class="a" d="M330.43128,157.96758a27.45824,27.45824,0,0,1-3.41043-.21658,10.18351,10.18351,0,0,1-7.53183-4.37c-1.35978-2.05156-2.619-5.73157-1.07649-11.71354-.19556-1.1697-.36188-2.34947-.5282-3.52831a51.03622,51.03622,0,0,0-1.68877-8.51329c-2.3778-7.34815-.94673-13.81079,4.02819-18.1972,7.31982-6.45533,15.29394-8.12125,23.05788-4.82687a18.14715,18.14715,0,0,1,11.3809,16.0972c.18643,3.09607-1.19712,6.05964-2.41983,8.675-.42768.91566-.85535,1.82858-1.20444,2.73236-.54647,1.41736-1.23367,2.77989-1.89895,4.09855-1.188,2.3577-2.312,4.58563-2.3449,6.54763a12.22882,12.22882,0,0,1-4.2475,9.28365C339.59705,156.595,335.29654,157.96758,330.43128,157.96758Zm4.98223-47.41342c-3.829,0-7.62321,1.68786-11.47594,5.0855-3.28615,2.89777-4.094,7.0219-2.40156,12.25818a55.552,55.552,0,0,1,1.90626,9.45453c.18825,1.326.37468,2.65195.60679,3.96422l.11149.63329-.17546.61867c-.95039,3.35834-.88459,6.09619.1846,7.71093a4.70069,4.70069,0,0,0,3.54933,1.90078c4.66422.58394,8.72895-.28694,11.14879-2.386a6.65962,6.65962,0,0,0,2.312-5.13758c.05483-3.24686,1.52611-6.162,2.948-8.98026.63055-1.251,1.22637-2.43263,1.67232-3.58954.39295-1.02076.87363-2.05339,1.35613-3.08876.98512-2.10822,2.00313-4.28772,1.90261-5.96095a12.40328,12.40328,0,0,0-7.97047-11.26667A14.43137,14.43137,0,0,0,335.41351,110.55416Z"/><path class="a" d="M80.5102,131.12276c-3.42322,0-6.15559-.38746-7.79775-2.3449-1.96018-2.33759-1.45391-5.67217-.456-10.49265.67166-3.25051,1.39816-6.49371,2.12375-9.73783,2.61357-11.677,5.31486-23.75148,5.26734-35.932-.00914-1.9949,1.23551-9.29553,5.27831-10.075,4.01905-.77676,9.61538-.7064,13.289,1.81031,2.42532,1.665,2.37415,5.05259,2.31749,8.63939-.02011,1.31135-.04021,2.66749.05848,3.861l.03107.38016-.07127.37467q-1.06646,5.62282-2.13655,11.3608c-1.94464,10.40036-3.95691,21.15345-6.1629,31.81242l-.04752.23486c-.76031,3.68458-2.03237,9.853-9.55689,10.07229C81.90837,131.10723,81.19558,131.12276,80.5102,131.12276Zm6.05507-63.17067a11.25267,11.25267,0,0,0-1.30312,4.64045c.04934,12.81288-2.72141,25.20083-5.4026,37.18121-.7201,3.214-1.43837,6.427-2.10547,9.64827-.28329,1.37441-1.03812,5.02335-.69086,5.8193.22663.09869,1.45117.34726,5.419.23211,2.70312-.07859,3.32819-1.26292,4.22192-5.59358l.04934-.23851c2.195-10.606,4.20182-21.33348,6.1428-31.70733q1.039-5.55429,2.06893-11.01263c-.08773-1.34151-.0658-2.70038-.0457-4.01813a21.88223,21.88223,0,0,0-.16083-4.09764C92.98588,67.77937,89.74908,67.44674,86.56527,67.95209Z"/><path class="a" d="M130.39646,136.08489a2.77134,2.77134,0,0,1-.63786-.07494,27.23159,27.23159,0,0,1-11.01537-5.16591c-2.32479-1.92636-2.1932-5.71329-1.88981-9.11093.28877-3.21122.69817-6.44071,1.09478-9.56329.52454-4.11774,1.0637-8.37529,1.31409-12.53324.605-10.09148,5.29476-18.32971,9.82921-26.29652l.57937-1.01893A6.50507,6.50507,0,0,1,133.657,68.939c2.44725-.61684,4.49059.67532,5.98379,1.61475a10.05031,10.05031,0,0,0,1.13864.66436,11.19166,11.19166,0,0,1,4.17074,3.80064c.19008.255.35092.4825.4953.63785l.94856,1.01162-.22846,1.368c-.12976.78224-.19921,1.26475-.24308,1.57271a4.01447,4.01447,0,0,1-.48981,1.64033c-5.01147,8.51969-5.79372,17.924-6.62348,27.88111-.26684,3.18563-.541,6.48092-.965,9.7232-.10966.83342-.17728,1.6778-.24673,2.52127a27.77625,27.77625,0,0,1-.96319,6.07609C135.609,130.76728,133.48156,136.08489,130.39646,136.08489Zm-7.89737-9.42438a20.62,20.62,0,0,0,6.90311,3.447,26.83763,26.83763,0,0,0,1.86971-4.317,23.33514,23.33514,0,0,0,.72924-4.87439c.07676-.93485.15535-1.86971.276-2.79177.40757-3.11161.67624-6.33927.93577-9.46093.83524-10.00741,1.69607-20.352,7.1535-29.86961.01827-.12154.03838-.26684.06579-.44321a6.99334,6.99334,0,0,0-1.94647-2.00861,15.02314,15.02314,0,0,1-1.8368-1.03629,9.28859,9.28859,0,0,0-1.61566-.88551,3.12967,3.12967,0,0,0-.47885.67441l-.583,1.0235c-4.412,7.74932-8.57908,15.06822-9.10545,23.85475-.25953,4.34437-.81332,8.69605-1.347,12.90426-.39112,3.07232-.7932,6.24972-1.07284,9.35767C122.17742,125.22578,122.36385,126.29223,122.49909,126.66051Zm.042.10143Z"/><path class="a" d="M217.02619,146.29516q-.68813,0-1.43472-.053c-2.5624-.18277-4.40286-.9778-5.62557-2.4308a7.02012,7.02012,0,0,1-1.389-5.43183c.36371-3.58041.79138-7.15533,1.21906-10.72934l.21018-1.771-.17729-.02559.26319-2.90234c.47336-2.58433.92663-5.17231,1.37989-7.7612,1.05091-6.0039,2.13837-12.21341,3.46709-18.29224,1.86422-8.51328,6.19032-9.34853,13.02763-7.91838,5.02061,1.05365,7.12426,4.27127,6.25246,9.566q-1.58458,9.59389-3.20391,19.17957l-1.983,11.82137c-.435,2.57884-.87,5.15951-1.2684,7.74475C227.11675,141.47377,224.70423,146.29516,217.02619,146.29516Zm-.96684-24.79143-.15535,2.31658-.53368,4.49606c-.424,3.542-.84621,7.084-1.20809,10.63156a2.14438,2.14438,0,0,0,.10052,1.25013c.00366.00274.30522.34269,1.729.44412,4.63131.32624,5.76081-1.22362,6.22321-4.20912.40392-2.60992.84256-5.21526,1.2812-7.81969l1.983-11.81863q1.60926-9.57882,3.19842-19.1622c.40392-2.4436.03473-2.75979-1.86239-3.1573-4.9603-1.039-5.43184-.76488-6.38954,3.62152-1.30495,5.96461-2.38145,12.11472-3.42322,18.06195Q216.53364,118.83168,216.05935,121.50373Z"/><path class="a" d="M249.55323,321.2242a14.28757,14.28757,0,0,1-2.79816-.30248c-7.89919-1.58093-10.03939-3.39763-8.99579-12.38337.424-3.65169.75848-6.53667,2.82009-8.15415,1.983-1.55627,4.55821-1.23277,7.5428-.85718h0c8.7125,1.09477,9.906,5.33862,9.11641,13.30269-.21566,2.1731-.77858,5.26918-3.18563,7.05207A7.31743,7.31743,0,0,1,249.55323,321.2242Zm-5.48118-16.37044a25.57722,25.57722,0,0,0-.73472,4.33158c-.32533,2.80273-.33264,4.43119-.02194,4.84241.42951.56567,3.31174,1.1423,4.54176,1.389,2.03786.40574,2.69947.06671,2.85482-.0466.254-.18917.71645-.84256.9376-3.09242.61592-6.19854.37833-6.60155-4.2274-7.18A20.7272,20.7272,0,0,0,244.07205,304.85376Z"/></svg>