<svg xmlns="http://www.w3.org/2000/svg" viewBox="0 0 396 392.32456"><defs><style>.a{fill:#eb212e;}</style></defs><title>Artboard 1</title><path class="a" d="M319.27279,225.301a33.67874,33.67874,0,0,1-3.51461-.18094,50.17277,50.17277,0,0,1-22.37617-7.38013,33.69522,33.69522,0,0,0-3.66447-1.87336c-.87729-.40575-1.75457-.8124-2.60992-1.25744-14.95217-7.78679-22.64757-19.62095-22.87146-35.17351-.1453-10.07138,1.72623-18.761,5.72335-26.56336a46.32626,46.32626,0,0,0,2.26357-4.97034A22.42939,22.42939,0,0,1,285.64,134.14134c2.48289-2.28733,5.47113-3.30991,8.12674-4.21918a24.55831,24.55831,0,0,0,4.76473-1.99856,101.25181,101.25181,0,0,1,11.73456-5.79736l.93394-.41306c11.64226-5.14763,22.781-4.7821,33.10733,1.08381,3.38027,1.91905,7.0082,2.79085,11.41562,3.50913,8.03444,1.30861,13.565,6.21316,16.43624,14.57566,2.058,5.992,2.30743,11.26485.78316,16.59251a46.14,46.14,0,0,0-1.68877,11.44852c-.31162,13.20035-4.72,25.56088-13.47724,37.78891a39.26887,39.26887,0,0,1-20.34014,15.00517C331.46426,223.614,325.55723,225.301,319.27279,225.301Zm7.85258-101.54809a33.66724,33.66724,0,0,0-13.65544,3.09607l-.93759.414a97.19149,97.19149,0,0,0-11.09122,5.462,29.16375,29.16375,0,0,1-5.85585,2.50939c-2.56239.87729-4.7757,1.63486-6.416,3.30169l-.4496.45692-.60313.21658a16.8661,16.8661,0,0,0-10.62608,10.63795,52.00569,52.00569,0,0,1-2.53406,5.58353c-3.56761,6.96617-5.2381,14.79225-5.1056,23.9242.19465,13.51654,6.68745,23.41885,19.85033,30.27353.77676.40483,1.57545.7731,2.37323,1.14138a38.38645,38.38645,0,0,1,4.27583,2.20417,44.01631,44.01631,0,0,0,19.91886,6.55494l.05026.00457c6.55951.69268,12.92528-1.10483,19.41717-3.16827a33.7687,33.7687,0,0,0,17.47435-12.92254c8.08013-11.28129,12.14578-22.6165,12.43-34.65171a51.82818,51.82818,0,0,1,1.90351-12.86223,21.21949,21.21949,0,0,0-.69451-13.22319c-2.20874-6.43066-6.03131-9.8813-12.02973-10.85819a38.79775,38.79775,0,0,1-13.28533-4.16891A28.81851,28.81851,0,0,0,327.12537,123.75286Zm-10.022,80.51892-1.37806-.07676a9.20061,9.20061,0,0,1-7.7548-5.13758c-3.7979-6.45534-5.3103-12.22163-4.76017-18.146.57937-6.23327,1.23642-13.29812,4.38641-19.87865,1.135-2.37049,2.06983-4.81317,3.05952-7.40024.73289-1.91722,1.49138-3.89842,2.33576-5.83849a22.07832,22.07832,0,0,1,2.3248-3.8445c.392-.55835.80783-1.15143,1.23276-1.80665l1.88981-2.91879,2.45456,2.4637c6.67739,6.70206,9.75245,14.70634,8.6595,22.53974l-.12519.89373c-.806,5.77818-1.64034,11.75283-2.29921,17.62879A36.932,36.932,0,0,1,321.688,198.85a22.977,22.977,0,0,1-2.75064,3.35743c-.3299.35274-.64791.69086-.93211,1.01984Zm2.09451-56.06561a11.75179,11.75179,0,0,0-1.05822,1.8295c-.79321,1.8231-1.52884,3.7449-2.23981,5.60272-.986,2.57793-2.00587,5.24359-3.23863,7.81877-2.71683,5.67492-3.298,11.92738-3.86,17.97331-.4359,4.69346.838,9.39057,4.00808,14.77946a4.3933,4.3933,0,0,0,2.04425,2.14477,18.31451,18.31451,0,0,0,2.09908-2.52036,31.46031,31.46031,0,0,0,4.59659-13.71118c.668-5.95,1.50691-11.963,2.3184-17.77775l.12428-.89373C324.70736,158.32781,323.01586,153.01112,319.19785,148.20617Z"/><path class="a" d="M208.21442,272.65588A28.34862,28.34862,0,0,1,195.2078,269.706a59.09153,59.09153,0,0,0-6.18209-2.55417c-1.22819-.45509-2.45547-.91109-3.66448-1.40548-10.245-4.19084-16.79811-12.08912-18.94928-22.8413C164.269,232.194,163.54708,220.528,164.14016,206.189c.16266-3.94411,1.53432-6.72674,4.19084-8.50689,6.5257-4.37452,13.05231-8.33509,21.12878-8.73991l.49347-.02651a23.90244,23.90244,0,0,1,2.69125-.04477c8.718.47519,13.88115,5.83392,13.81353,14.33441-.01462,1.87611-.042,3.75312-.06854,5.62923-.06762,4.77661-.13708,9.715-.00183,14.53728.07585,2.72871.36919,5.51957.72467,8.28575.19465-.93577.36828-1.87611.54374-2.82924l.318-1.697c.86266-4.47322,1.612-9.0689,2.33576-13.51288.68721-4.21643,1.39726-8.57725,2.20966-12.86223.64333-3.39946,1.58641-6.73861,2.49842-9.96628.33355-1.1825.668-2.36409.98694-3.54751a9.886,9.886,0,0,1,4.85521-6.1099l2.31109-1.29764c2.53954-1.42559,5.07909-2.85026,7.60128-4.30691a6.43061,6.43061,0,0,0,1.03628-.92389c6.48549-6.57047,14.57293-5.59724,20.09067-4.29593,4.97857,1.1761,7.43039,4.72087,6.90311,9.98273-.60313,6.02309-1.37076,12.34591-2.28185,18.79119-.50261,3.55116-1.09934,7.13157-1.676,10.59409-.40575,2.43445-.81149,4.86982-1.188,7.30885l-.06123.39478a14.9554,14.9554,0,0,0-.28968,3.86917,31.36657,31.36657,0,0,1-1.98759,14.795c-2.12924,5.8385-4.48967,11.38913-7.13157,17.521a19.48493,19.48493,0,0,1-6.52661,7.57752c-5.98471,4.56552-12.53051,9.14932-20.93048,10.65989A48.07077,48.07077,0,0,1,208.21442,272.65588ZM191.8056,194.46359c-.48708,0-1.00431.02833-1.54347.05848l-.52089.02742c-6.65089.33355-12.21614,3.72844-18.284,7.79684-.78315.52454-1.59738,1.41827-1.708,4.07479-.573,13.87932.11605,25.12224,2.16761,35.38186,1.7902,8.94553,7.02922,15.25282,15.57084,18.74733,1.15143.47062,2.32022.90378,3.489,1.33694a64.26073,64.26073,0,0,1,6.76786,2.80913c4.91369,2.48928,10.29344,2.96174,17.99158,1.5791,7.17452-1.28942,12.854-5.27557,18.51887-9.59709a14.24221,14.24221,0,0,0,4.7757-5.33588c2.60717-6.05051,4.9338-11.52346,7.01277-17.223a25.91081,25.91081,0,0,0,1.68968-12.18508,19.55249,19.55249,0,0,1,.31436-5.41995l.06032-.38473c.38015-2.46278.78955-4.91917,1.198-7.37648.57115-3.4287,1.1624-6.97438,1.655-10.45792.901-6.36943,1.65952-12.6155,2.25443-18.56365.27872-2.77714-.61867-3.48993-2.60626-3.95873-6.86016-1.62206-11.2886-.78955-14.805,2.77532a10.53327,10.53327,0,0,1-2.22427,1.84229c-2.54229,1.46762-5.10194,2.90417-7.66068,4.34071l-2.30469,1.294a4.22794,4.22794,0,0,0-2.18864,2.67845c-.32441,1.20535-.66436,2.40887-1.0043,3.61148-.87911,3.11161-1.78746,6.32922-2.386,9.48652-.79869,4.21461-1.50234,8.538-2.18406,12.71967-.73016,4.48419-1.4859,9.12007-2.365,13.67463l-.30887,1.64947a42.55116,42.55116,0,0,1-3.74673,12.3715l-2.65286,5.20977-2.407-5.32766c-.31436-.69634-.61867-1.28211-.88734-1.80208a10.97248,10.97248,0,0,1-1.34242-3.54476l-.06305-.44961a115.80215,115.80215,0,0,1-1.30313-12.77359c-.138-4.94019-.06763-9.93887.00091-14.774.0265-1.86513.053-3.72936.06763-5.5945.04386-5.45194-2.81736-8.37347-8.50324-8.68417C192.16656,194.46724,191.98836,194.46359,191.8056,194.46359Z"/><path class="a" d="M70.99569,347.49074a24.32425,24.32425,0,0,1-6.00389-.78772,165.85877,165.85877,0,0,1-17.5767-5.76539,9.97,9.97,0,0,1-5.18784-5.25181,29.07462,29.07462,0,0,1-2.13838-8.93182c-.39112-5.86682-.54373-11.84422-.45417-17.76495.16266-10.76681.00456-24.92029-2.67571-38.912-.11423-.59765-.17455-1.20444-.22938-1.81214l-.06579-.67258c-.59034-5.16682,2.12558-7.83888,4.508-9.17033.78315-.43773,1.538-.92572,2.29281-1.41188l.80874-.51723c1.67506-1.0637,3.33915-2.15208,5.00233-3.24046,3.829-2.50482,7.78862-5.09463,11.89083-7.37191a62.81656,62.81656,0,0,1,13.90308-5.88784c4.86252-1.32688,9.84749-2.35221,14.668-3.3428,3.08145-.63329,6.1629-1.26658,9.22425-1.97937,14-3.25782,27.543-1.71984,38.94856.21475a80.91411,80.91411,0,0,1,15.0664,4.54907,27.30876,27.30876,0,0,1,10.796,7.98692,14.09694,14.09694,0,0,1,3.30352,13.0322,43.71129,43.71129,0,0,1-7.12883,16.33571c-9.78443,13.62894-18.77108,24.4058-30.831,32.70616-2.73877,1.88524-5.441,3.82166-8.14319,5.75807-2.461,1.76279-4.921,3.52558-7.40754,5.25-2.36227,1.6385-4.81774,3.16735-7.19189,4.64593l-2.45273,1.5389c-3.90573,2.47924-8.27021,5.25364-14.04473,5.10377-.28237.94216-.52089,1.71618-.83342,2.50665C85.66914,342.82653,79.13705,347.49074,70.99569,347.49074ZM116.27074,238.3962a70.56248,70.56248,0,0,0-16.036,1.74269c-3.10795.72376-6.23784,1.3671-9.36681,2.01044-4.73458.97323-9.63,1.97936-14.31979,3.25964a57.34613,57.34613,0,0,0-12.65662,5.38067c-3.924,2.17858-7.79684,4.71173-11.54265,7.16172-1.6842,1.10209-3.36931,2.20417-5.06813,3.2825l-.77676.49712c-.85352.55013-1.70887,1.09843-2.59437,1.59282-1.1752.65613-1.90809,1.5261-1.66775,3.6334l.07859.79778c.03929.42494.0731.84987.15261,1.26749,2.77623,14.4916,2.94163,29.017,2.77623,40.05156-.08773,5.769.06122,11.592.44138,17.30712a23.41434,23.41434,0,0,0,1.73263,7.17726,4.4947,4.4947,0,0,0,1.973,2.1265,161.11739,161.11739,0,0,0,16.98,5.57713c8.12308,2.06618,14.32345-1.13772,17.44511-9.02869.27232-.689.4825-1.40273.76122-2.33485.17-.56749.36188-1.20717.59765-1.9556l.73107-2.31749,2.3979.39112c4.9274.80144,8.48405-1.45482,12.6027-4.0693l2.49477-1.56449c2.31566-1.442,4.71082-2.93341,6.95885-4.49241,2.4637-1.70887,4.9009-3.45521,7.33719-5.20064,2.73145-1.95743,5.4629-3.91395,8.23-5.81839,11.391-7.8407,20.01208-18.20542,29.45291-31.35642a38.11017,38.11017,0,0,0,6.204-14.254,8.49633,8.49633,0,0,0-2.04516-8.14593,21.61622,21.61622,0,0,0-8.559-6.43157,76.38454,76.38454,0,0,0-14.01457-4.26213A123.56153,123.56153,0,0,0,116.27074,238.3962ZM84.06262,304.71961l-.58851-5.00325c-.23211-1.97662-.44778-3.73576-.64608-5.34959-.40757-3.32453-.72924-5.95-.98237-8.66041A67.56834,67.56834,0,0,0,78.406,270.02678a32.498,32.498,0,0,1-1.27388-4.82871c-.86449-4.87714,1.80482-7.05846,4.19541-8.02895,11.16707-4.53262,21.52082-6.50285,31.62966-6.013,2.5761.12337,6.88575.33081,9.86942,4.51161l.79778,1.11853-.392,1.31592c-5.61277,18.80216-19.27278,30.81726-35.22468,43.48484Zm25.90083-48.02112c-8.4347,0-17.14172,1.86514-26.52406,5.67309-.81332.32989-1.03172.41854-.77859,1.84777a26.82811,26.82811,0,0,0,1.06005,3.9962,73.16843,73.16843,0,0,1,3.71565,16.96809c.24674,2.64556.57023,5.2838.965,8.49958.01371.11789.02833.23669.043.35548,13.04956-10.60231,23.99548-21.12146,28.94024-36.059-1.17336-.96592-2.64555-1.11762-4.69711-1.21632Q111.33054,256.69894,109.96345,256.69849Z"/><path class="a" d="M111.58359,209.64784q-.39478,0-.80418-.02742A28.8082,28.8082,0,0,1,96.20374,204.375c-.39934-.27506-.79229-.55927-1.18524-.84347a22.50532,22.50532,0,0,0-2.397-1.5919,6.65842,6.65842,0,0,1-3.75769-7.3189c.58394-4.54816,1.612-9.015,2.60717-13.33468.42676-1.85509.85444-3.70926,1.24647-5.57166q1.19119-5.6475,2.407-11.29043c1.40274-6.54214,2.80548-13.08337,4.13968-19.6374.8855-4.35442,1.66957-9.015,2.46644-14.668a60.54986,60.54986,0,0,0,.42859-7.0274l.01553-.64973a6.44674,6.44674,0,0,1,3.30626-5.80834l.48981-.26592c4.53262-2.46279,9.22334-5.027,15.21992-4.80586a13.029,13.029,0,0,1,7.47609,2.40978,8.25642,8.25642,0,0,1,3.83171,7.61682c-.2842,3.171-.45144,6.43339-.61318,9.58795l-.08225,1.59373c3.22492-1.75365,6.11447-3.34372,9.00584-4.97949.4624-.26044.72559-.66618.97872-2.26174.86083-5.45742,1.83041-11.13965,2.88041-16.8895.31527-1.72806.68446-3.44881,1.05365-5.16865.498-2.323,1.01344-4.72452,1.36527-7.06485,1.11488-7.42035,6.4663-8.23092,11.39461-8.40911a11.77048,11.77048,0,0,1,2.7607.28877,11.42614,11.42614,0,0,0,1.23276.191l.73838.0466c1.95743.11423,4.63771.26959,6.88757,2.66749,2.19869,2.34033,4.35625,4.94933,4.47779,8.803a33.47789,33.47789,0,0,1-.19464,4.90364c-.27781,2.41709-.605,5.0197-1.114,7.65337a129.573,129.573,0,0,0-1.72806,16.76978c-.17272,2.91057-.35091,5.91983-.63146,8.89619-.09321.99882-.20013,1.99764-.308,2.99555-.14165,1.31866-.28421,2.63733-.392,3.95782-.34269,4.179-.69634,8.50049.16084,12.68494,1.22362,5.96643.551,12.05074-2.058,18.60111l-.46057,1.15692-1.167.43407c-.26227.09778-.53916.20836-.82793.3235-.7658.30431-1.633.64974-2.577.92206-3.033.87362-7.61316,1.72806-12.35322-.91566-1.31866-.73656-2.71775-1.37167-4.19816-2.04425-1.08015-.49073-2.16122-.98238-3.2167-1.51514-3.733-1.88067-5.50951-5.80925-4.22466-9.34214a13.60736,13.60736,0,0,0,.38838-5.5945l-.20927-3.78876c-.06671-1.262-.1325-2.52492-.20744-3.78693q-2.7648,2.492-5.504,5.00965l-2.005,1.83315a4.75343,4.75343,0,0,1-1.10757,1.02258c-2.83563,1.80574-3.81526,4.42479-4.54907,8.33783-.86448,4.61578-1.89346,9.2608-2.88863,13.75322-.69086,3.12257-1.38355,6.24606-2.026,9.37686-.39569,1.9291-.62689,3.88928-.8718,5.96551-.08864.75392-.17728,1.50692-.27415,2.259a9.2976,9.2976,0,0,0-.05209.933,14.34327,14.34327,0,0,1-.10966,1.59921C119.22873,206.98218,116.15459,209.64784,111.58359,209.64784Zm8.95375-92.48285c-4.27309,0-7.975,2.01044-11.88625,4.136l-.4953.26867c-.13068.07036-.34817.18825-.36827,1.008l-.01462.64334a65.83877,65.83877,0,0,1-.48251,7.68078c-.81331,5.76813-1.61566,10.53561-2.52493,15.00335-1.33694,6.57412-2.74424,13.13546-4.15063,19.69588q-1.209,5.63517-2.40339,11.27216c-.39935,1.89529-.83433,3.78419-1.26932,5.67308-.96409,4.18628-1.96109,8.516-2.50939,12.79-.13159,1.02624-.0594,1.166.86449,1.66683a27.30367,27.30367,0,0,1,3.01474,1.9812c.35731.25861.71371.51723,1.07559.76671a22.978,22.978,0,0,0,11.75831,4.26761c2.35221.14986,2.93615-.76671,3.16644-2.40522a8.62258,8.62258,0,0,0,.05666-.97232c.0137-.49987.03289-.99973.096-1.49412.09412-.73381.18094-1.46762.26775-2.20051.24765-2.10182.50353-4.27492.94765-6.43706.64791-3.16,1.34608-6.31094,2.04425-9.46276.98511-4.44763,2.004-9.047,2.85208-13.57319.82336-4.39463,2.22884-8.87517,6.86381-11.91824a6.59845,6.59845,0,0,1,.52454-.55378l2.0013-1.8295c2.39242-2.18863,4.78484-4.37635,7.20468-6.53666a4.643,4.643,0,0,1,5.90429-.73655l1.1825.69634.276,2.04425c.10143.679.21018,1.42924.25953,2.18224.10691,1.65861.19373,3.31722.28054,4.97583l.20653,3.73667a18.59076,18.59076,0,0,1-.71553,7.86081c-.35183.96684.51723,1.92636,1.474,2.40887.98877.498,2.0013.95678,3.01383,1.41644,1.51879.69,3.08968,1.40365,4.61121,2.25261,2.27362,1.26931,4.68523,1.39634,8.06277.424.62415-.18,1.23093-.4158,1.79751-.6406a25.82951,25.82951,0,0,0,1.34791-14.27411c-1.01984-4.97034-.615-9.91145-.2577-14.27136.1124-1.368.25861-2.73419.40574-4.09946.10509-.97323.21018-1.94647.30065-2.92062.27141-2.8804.44687-5.84032.61684-8.70336a133.62276,133.62276,0,0,1,1.82036-17.50086c.47245-2.44907.78316-4.92374,1.04817-7.233a28.00548,28.00548,0,0,0,.16175-4.0821c-.05575-1.739-1.04086-3.09425-2.95992-5.1385-.65978-.70273-1.34059-.80143-3.11983-.90469l-.8325-.05392a16.89678,16.89678,0,0,1-1.84778-.27049,8.39178,8.39178,0,0,0-1.52427-.19648c-5.0992.18368-5.6539,1.03812-6.04411,3.63341-.37833,2.51213-.912,5.00051-1.42832,7.40755-.35731,1.66409-.71462,3.32818-1.01984,4.99959-1.04269,5.70507-2.004,11.34343-2.85848,16.757-.23394,1.47859-.7201,4.55364-3.75951,6.27256-3.75952,2.12741-7.50625,4.17257-11.974,6.58875a3.62454,3.62454,0,0,1-2.61814.23943c-.10692-.02285-.22846-.05209-.36645-.06945l-2.43446-.31345-.03107-3.4351c-.01919-.82245-.03472-1.65861.00914-2.493l.11971-2.3056c.16449-3.20756.33447-6.52387.62781-9.80271.06762-.7466-.00274-1.45482-1.54347-2.5761a7.51962,7.51962,0,0,0-4.36356-1.33785C120.84439,117.16682,120.69087,117.165,120.53734,117.165Z"/><path class="a" d="M207.346,156.30684c-5.07179,0-9.25076-2.20326-12.18051-4.06291-1.72806-1.09752-3.48445-2.15391-5.25272-3.192a9.16205,9.16205,0,0,1-4.48236-5.54058,25.26467,25.26467,0,0,1-.86358-4.433,245.20421,245.20421,0,0,1-.73107-29.4264c.18551-5.15129.69543-10.33456,1.18707-15.34786.223-2.26266.445-4.52623.63878-6.79071a6.65854,6.65854,0,0,1,5.3112-6.07426,8.37074,8.37074,0,0,0,4.391-2.52127,7.43858,7.43858,0,0,1,2.82375-1.83681c2.1137-.79961,4.25116-1.70339,6.31826-2.577a95.77335,95.77335,0,0,1,13.172-4.81409c8.071-2.1009,17.659-4.5052,27.57406-6.406a30.68814,30.68814,0,0,1,5.769-.679h.03747a14.52185,14.52185,0,0,1,10.59592,4.41748l.75391.75574.10052,1.708c.032.52637.06854,1.10939.09413,1.69425a5.58761,5.58761,0,0,1-3.426,5.49032l-.65339.30887a21.65142,21.65142,0,0,1-3.10339,1.28029L249.568,80.02812c-7.40481,2.24164-15.06092,4.56-22.66677,6.65637a64.79931,64.79931,0,0,1-8.29945,1.53707c-1.16148.16267-2.323.32533-3.47623.51632-.13616.02193-.244.04386-.32989.063-.01005.05209-.0201.11241-.03107.18277l-.09961,3.21944c-.10509,3.93132-.20927,7.86264-.2906,11.794q.30705-.06306.61044-.13982c2.6218-.67532,5.23811-1.37075,7.8535-2.06618q2.72368-.72377,5.44737-1.44112c.56292-.14713,1.1359-.265,1.70887-.38107a14.81875,14.81875,0,0,0,2.13655-.53733c4.74189-1.77558,9.407-.9641,13.86653,2.40247l.85352.64425.20836,1.04908c.9906,4.98132-1.08107,8.70611-5.83484,10.48992-.69817.26227-1.37623.57663-2.0543.88733-.90195.41488-1.83589.84347-2.853,1.19712q-1.56951.54556-3.13537,1.103c-6.12544,2.16853-12.45831,4.41109-19.2408,5.36056a2.63308,2.63308,0,0,0-.3436.07036,108.60234,108.60234,0,0,0,.64426,12.53051,1.00869,1.00869,0,0,0,.149-.03016c2.89594-.87819,5.7663-1.835,8.63574-2.79085l2.757-.90835c.05757-.01736.117-.0329.17454-.05117,2.70313-2.60078,6.02309-3.18838,8.962-3.70835.637-.1124,1.273-.22389,1.90078-.35913.89282-.19191,1.79112-.37285,2.6885-.55287,2.23981-.45144,4.35534-.87729,6.42061-1.47311,4.751-1.37166,9.24527-.44778,13.44251.61593a6.254,6.254,0,0,1,3.23772,2.43628,7.67779,7.67779,0,0,0,.54556.63238l1.17519,1.15508-.435,1.59008a11.91845,11.91845,0,0,1-8.40545,8.75819c-3.89385,1.29582-7.29058,2.48837-10.383,3.64438-2.6218.98145-5.23354,1.98759-7.84528,2.99463-4.06291,1.56632-8.26381,3.18563-12.45283,4.68249-4.60938,1.64673-9.30466,2.949-12.87959,3.89934A17.7775,17.7775,0,0,1,207.346,156.30684Zm43.67765-88.0873a25.9324,25.9324,0,0,0-4.71447.57846c-9.757,1.87062-19.23349,4.2475-27.21675,6.32557a90.11572,90.11572,0,0,0-12.40074,4.55181c-2.11553.89464-4.30325,1.81944-6.51747,2.65652a2.06105,2.06105,0,0,0-.67715.38655,13.9429,13.9429,0,0,1-7.19554,4.17622c-.90013.21932-1.0043.60953-1.04543,1.09661-.19647,2.28824-.42036,4.57557-.64516,6.862-.48434,4.9274-.9842,10.02295-1.16423,15.00152a239.43467,239.43467,0,0,0,.71462,28.74925,20.14145,20.14145,0,0,0,.68812,3.43785,3.56619,3.56619,0,0,0,1.90626,2.16761c1.824,1.07193,3.63706,2.163,5.419,3.29438,4.63954,2.9462,8.4347,3.80246,12.313,2.77074,3.46983-.922,8.018-2.18315,12.43181-3.76043,4.12414-1.4731,8.29214-3.08053,12.32307-4.63405,2.6291-1.01345,5.2582-2.02689,7.89827-3.01383,3.1573-1.18159,6.61708-2.39608,10.57764-3.71383a6.37078,6.37078,0,0,0,4.28863-3.56487c-.096-.11423-.191-.22389-.26684-.30065-3.63066-.912-6.91956-1.559-10.25414-.59947-2.28733.65887-4.61578,1.12767-6.86838,1.58184-.87454.17546-1.74817.35183-2.61906.53917-.69451.148-1.39725.27323-2.1.39751-2.51579.445-4.688.82977-6.1757,2.35313a5.09311,5.09311,0,0,1-2.32571,1.25561l-2.5962.85718c-2.863.954-5.82387,1.94007-8.78013,2.83745a15.98135,15.98135,0,0,1-4.14424.33081l-2.62636.13434-.30522-2.61174a120.83584,120.83584,0,0,1-.95862-16.05426c.04387-2.83106,2.0278-4.86343,5.17688-5.303,6.21956-.8718,12.01236-2.92245,18.14419-5.09372q1.58322-.56064,3.16736-1.114c.76213-.265,1.53433-.61958,2.35129-.99517.80052-.36736,1.602-.7329,2.42624-1.04177,1.80939-.679,2.514-1.517,2.43811-3.09333a7.91422,7.91422,0,0,0-7.59306-.97781,19.40282,19.40282,0,0,1-2.98732.78225c-.47063.095-.94217.18916-1.40365.30979q-2.71272.71-5.42544,1.43563c-2.63.69908-5.26095,1.39817-7.89737,2.07715-.91109.23394-1.79842.37467-2.65743.50992-.35822.05666-.71827.11331-1.07924.17728l-2.26082.403-.84256-2.13563c-.07037-.17637-.14713-.32989-.21475-.47062a4.722,4.722,0,0,1-.60039-2.24256c.085-4.49515.20378-8.98848.3235-13.4818l.08133-3.07323a6.946,6.946,0,0,1,.08042-.83982c.45143-2.92609,1.99124-4.4458,4.9941-4.94293,1.19895-.1983,2.407-.36827,3.61513-.53733a59.70478,59.70478,0,0,0,7.58484-1.38812c7.53913-2.079,15.16143-4.38641,22.53334-6.61891l5.85951-1.77009a17.12089,17.12089,0,0,0,2.30652-.97232l.70457-.33264a.82239.82239,0,0,0,.22845-.138c-.04934-.38929-.08041-.7731-.106-1.1359a8.75566,8.75566,0,0,0-5.8851-2.08537Zm6.62531,62.98334h0Z"/><path class="a" d="M55.84239,228.40339a17.93133,17.93133,0,0,1-7.12882-1.53524c-3.38119-1.45574-6.61708-3.01749-9.61812-4.64137a8.34408,8.34408,0,0,1-4.29776-6.85833,50.60007,50.60007,0,0,1-.10509-6.36121c.55561-11.64043,2.53315-23.28086,4.5116-34.20484.39386-2.174.73929-4.38184,1.05822-6.54489-.58851.42311-1.16331.85078-1.73263,1.273-.73747.5483-1.46671,1.08929-2.20783,1.61109a28.6333,28.6333,0,0,1-19.29928,5.27283,21.38355,21.38355,0,0,1-4.4586-.99973c-.63877-.19282-1.30678-.39387-2.02323-.57846l-3.82257-.9842,2.18406-3.288c.2312-.34726.4222-.67258.59857-.97141a9.194,9.194,0,0,1,1.66866-2.24072,187.82142,187.82142,0,0,1,28.656-21.62591c5.35507-3.30168,10.754-6.45533,16.27631-9.66289,2.8402-1.65038,5.69411-3.27792,8.54893-4.90638,3.8244-2.18041,7.64788-4.36082,11.43573-6.59514a30.76685,30.76685,0,0,0,3.40678-2.47193c.58668-.46605,1.17336-.93211,1.77284-1.37989.17363-.12885.34268-.26775.51174-.40574a10.0425,10.0425,0,0,1,2.0735-1.39543c3.50547-1.65313,12.25544-.7201,15.60921,1.66318a5.87581,5.87581,0,0,1,1.08381,9.32843A36.081,36.081,0,0,1,90.474,137.88163c-4.74737,2.57336-9.492,5.37427-14.08037,8.08379Q74.04,147.35537,71.68281,148.738a11.23905,11.23905,0,0,0,.329,1.22637,17.55831,17.55831,0,0,1,.5748,8.24736l-.52271,3.913c-.67807,5.06265-1.379,10.298-1.92271,15.44107-.27963,2.64556-.43407,5.38341-.583,8.0317-.11057,1.9684-.22206,3.9368-.382,5.90155-.35091,4.3133-.74569,8.62386-1.14047,12.93442l-.59582,6.57138c-.10326,1.15875-.1983,2.31932-.29425,3.479-.18094,2.18407-.36188,4.36814-.58668,6.54763a13.55344,13.55344,0,0,1-.56658,2.50208c-.08407.28146-.16906.56567-.244.85627l-.30887,1.198-1.092.5812A17.98241,17.98241,0,0,1,55.84239,228.40339ZM45.31867,158.8112l.62415,3.85c.05209.31619.1124.58577.16449.82337a6.13764,6.13764,0,0,1,.18642,2.2791c-.456,3.2231-.9513,6.65181-1.56448,10.03848-1.94556,10.74122-3.88929,22.17238-4.42754,33.47195a44.87709,44.87709,0,0,0,.09322,5.653,2.8017,2.8017,0,0,0,1.3744,2.36227c2.853,1.54438,5.93628,3.0321,9.16486,4.42113a11.64925,11.64925,0,0,0,9.74148.00366,7.47861,7.47861,0,0,0,.29791-1.262c.22206-2.13929.39843-4.285.57571-6.43066.09687-1.17062.19374-2.34216.29791-3.51278l.59765-6.58783c.39295-4.29137.7859-8.58274,1.135-12.87685.15627-1.91814.2641-3.84085.37285-5.76265.15261-2.715.31162-5.52322.605-8.30493.55195-5.22165,1.25835-10.49631,1.9419-15.59734l.52-3.903a11.8057,11.8057,0,0,0-.30431-5.65115,19.37288,19.37288,0,0,1-.615-2.33028c-.07036-.32167-.14256-.657-.22846-1.00705l-.38289-1.57545,1.17153-1.11945c.23851-.22754.42585-.4231.58668-.59033a6.47825,6.47825,0,0,1,1.43381-1.21266q2.43583-1.42422,4.858-2.85939c4.63223-2.7342,9.42164-5.56252,14.25948-8.18522A30.57845,30.57845,0,0,0,96.33168,126.19a1.97978,1.97978,0,0,0,.41945-.63512c-.02741.05392-.17728-.14621-.54373-.40665-1.66775-1.18525-8.27752-1.95744-9.959-1.1624a5.76132,5.76132,0,0,0-.92481.67167c-.23028.18825-.46148.37467-.69817.551-.55378.414-1.09568.8453-1.6385,1.27663a35.49857,35.49857,0,0,1-4.04738,2.91239c-3.81252,2.248-7.65976,4.44215-11.507,6.63718q-4.263,2.43034-8.51054,4.88262c-5.48758,3.18929-10.85271,6.32192-16.15021,9.588a182.74191,182.74191,0,0,0-26.78176,20.0468,9.41343,9.41343,0,0,0,1.495.26593,22.79406,22.79406,0,0,0,15.60374-4.26579c.70273-.49529,1.39359-1.00887,2.09268-1.52884a49.43245,49.43245,0,0,1,6.6847-4.39738Z"/></svg>