<svg xmlns="http://www.w3.org/2000/svg" viewBox="0 0 396 392.32456"><defs><style>.a{fill:#eb212e;}</style></defs><title>Artboard 1 copy 2</title><path class="a" d="M260.79685,54.61746l-1.28591-1.7176L104.22261,70.26048,41.87173,214.08487l91.14026,123.573,1.30479,1.7672,156.96936-17.54854,61.96162-141.29895.87863-1.99752Zm86.76848,122.46879-18.45745,2.06347L251.45638,77.21255l7.60688-17.67595ZM325.6512,181.7905l-51.51436,117.06-127.45519,14.249L70.72364,210.8483,122.34731,93.91157,248.00862,79.86313ZM255.05881,57.87087l-7.57223,17.58276L121.825,89.50208,109.83048,74.10681ZM106.22487,76.55562l12.1505,15.60267L66.76421,209.064l-18.90064,2.113ZM48.3776,215.58475l18.87965-2.11067L143.18684,315.685l-8.28914,17.20223Zm90.6018,118.85109,8.14633-16.9127L274.644,303.2671l11.1161,14.75923ZM289.32631,315.5332l-11.2277-14.901L329.617,183.56067l18.48368-2.0664Z"/><path class="a" d="M291.60564,322.31121,134.10046,339.91966,41.33523,214.14605l.10751-.24742L103.90133,69.82542,259.72547,52.4049l1.44522,1.93036,93.49408,124.18318ZM134.53232,338.92978l156.43353-17.48864,62.62222-142.79865L259.29725,53.39437,104.54475,70.69508,42.4085,214.02422Zm152.09541-20.53005L138.1916,334.9943l8.625-17.90746,128.04028-14.3144ZM139.76867,333.87639l145.124-16.22428-10.46219-13.8904L147.4346,317.95934Zm-4.78662-.08647-.4607-.62527L47.5203,215.21l19.95175-2.23053,76.25886,102.65378ZM49.23537,215.95982l85.57794,116.02462,7.82939-16.248L67.042,213.96911ZM289.4336,316.45389l-11.87286-15.75841.10983-.25136,51.62637-117.31864,19.55851-2.18657-.32617.74267Zm-10.79637-15.88428,10.58138,14.04351,58.12788-132.56391-17.40976,1.94634Zm-4.18031-1.28436L146.46658,313.59406,70.18489,210.90882,122.02846,93.4767,248.21969,79.369l77.971,102.35754-.11063.25236ZM146.89663,312.60439l126.92049-14.18921L325.1126,181.85444,247.79691,80.35788,122.66643,94.347,71.262,210.7884ZM67.083,209.4993l-19.96991,2.23255.32173-.74124,58.67488-135.345,12.80669,16.44573-.112.2562Zm-18.46822,1.12307L66.445,208.629,117.83525,92.225,106.3408,77.46615Zm299.81771-33.16256-19.5358,2.184L250.91829,77.27793l8.03433-18.66717Zm-19.113,1.19516,17.378-1.94278L259.17427,60.46182l-7.1802,16.68389Zm-81.51-102.76647L121.61729,89.99627,108.948,73.73473,255.80659,57.31652ZM122.03371,89.00812,247.16419,75.019l7.14616-16.59365L110.7139,74.4789Z"/><path class="a" d="M212.63446,169.95082,176.73728,173.964l-5.71554-51.12471-48.23386,5.39236L139.53306,278.015l48.23387-5.39235-5.65243-50.56016,35.89719-4.01316,5.65242,50.56016,48.22319-5.39116L255.14212,113.435l-48.2232,5.39116ZM159.34118,128.613l-11.31457,6.83807-12.56618-4.16829Zm8.02314.32211,5.22883,46.77113-15.71467,19.56591-6.28428-56.212ZM127.698,133.36435l18.59726,6.17113,13.66647,122.24475-16.77386,10.13893ZM151.20307,272.2425l11.32649-6.85066,12.57015,4.17911Zm31.65054-4.75781-18.58681-6.17231-6.226-55.64389,19.6469,15.60734Zm-2.51611-49.70241-19.46838-15.45914,73.50174-8.2172-15.5817,19.3776Zm41.81379-1.491,15.71486-19.54157,6.22024,55.63914-16.76762,10.12479ZM235.342,262.83611l11.31917-6.84421,12.56169,4.17443Zm31.63476-4.75605-18.592-6.17172-13.668-122.258,16.77041-10.12245ZM243.45633,119.20925l-11.32762,6.83952-12.5453-4.17063Zm-31.62685,4.75482,18.58953,6.172,6.2828,56.1988L217.0601,170.75132Zm22.04746,65.72381-73.49663,8.21663L175.949,178.528l38.45677-4.29932Z"/><path class="a" d="M272.40468,263.631l-49.15328,5.49514-5.65241-50.56-34.96755,3.90923,5.65241,50.56-49.16417,5.49635-16.8491-150.71292,49.16417-5.49636,5.71557,51.12493,34.96754-3.90923-5.71556-51.12493,49.15328-5.49514Zm-48.32727,4.4612,47.29333-5.2872L254.72957,113.952l-47.29333,5.2872,5.71557,51.12493-36.8275,4.11717-5.71556-51.12493-47.30423,5.28842,16.64116,148.853,47.30423-5.28842-5.65241-50.56,36.8275-4.11716Zm37.31633-7.6982-28.11716,3.14338,13.327-8.05809Zm-23.98721,1.74007,19.64569-2.19631-10.33412-3.434Zm-60.13725,7.6647L149.1394,272.9436l13.33274-8.06425Zm-24.00174,1.74171,19.662-2.19814-10.34291-3.43859Zm-10.46362,1.15691L127.15166,132.69008l19.57558,6.49555,13.733,122.84006ZM128.24408,134.0392l15.32736,137.10116,15.89225-9.60647L145.86387,139.88536ZM183.39944,268.159l-19.56468-6.49677-6.38361-57.05936,20.67946,16.42718Zm-18.70131-7.1965,17.60889,5.84738-5.06313-45.289-18.6128-14.78607Zm62.2366,2.32943-5.27025-47.14167,16.54139-20.57085,6.37856,57.05533Zm-4.297-46.85875,5.06455,45.30169,15.88559-9.59193-6.062-54.22363ZM267.523,258.75432l-19.57013-6.49616L234.21831,129.40448,251.871,118.74971Zm-18.70676-7.19589,17.61434,5.84677L251.10351,120.30676l-15.88862,9.58952ZM219.0325,213.92684l-38.83457,4.34155-20.50811-16.2845,75.75742-8.46938Zm-38.55529,3.36873,38.06807-4.25586,14.75-18.343-71.24742,7.96517Zm54.57925-27.26836-75.75107,8.46867,16.40012-20.41161,38.84-4.34216Zm-73.60094,7.2867,71.24288-7.96467-18.43216-14.63431-38.07352,4.25646Zm-4.91662-.871-6.44262-57.62839,17.65141-10.6583,5.33167,47.69112Zm-5.44605-57.13659,6.12585,54.79488,14.88744-18.53678-5.126-45.85114Zm86.19864,48.09406-20.675-16.40377L211.283,123.28913l19.56751,6.49738Zm-19.78828-16.89462,18.60854,14.76448-6.12463-54.784-17.61172-5.848Zm14.68325-43.94441-14.77322-4.91109,28.11081-3.14267ZM221.753,122.10668l10.319,3.43022,9.31672-5.62541Zm-73.66916,13.857-14.79592-4.90855,28.119-3.14359ZM137.633,131.511l10.33624,3.4283,9.30581-5.6242Z"/></svg>