<svg xmlns="http://www.w3.org/2000/svg" viewBox="0 0 396 392.32456"><defs><style>.a{fill:#eb212e;}</style></defs><title>Artboard 1 copy 3</title><path class="a" d="M197.12585,313.17317q-8.141,0-16.39368-.766c-37.99587-3.54639-72.61059-19.04827-97.467-43.65083-25.03586-24.77873-37.20036-55.811-34.25471-87.37934C55.067,116.4698,123.98128,69.63588,202.702,76.97813,281.38993,84.32038,340.48027,143.1,334.42264,208.0083c-2.94565,31.56948-20.64146,59.81581-49.82882,79.53484C259.80744,304.29025,229.23041,313.17317,197.12585,313.17317ZM186.46153,82.94275c-68.295,0-125.44634,42.131-130.75771,99.058-2.75526,29.52767,8.71222,58.64171,32.29059,81.97716,23.75343,23.51161,56.91064,38.33289,93.36366,41.73484,36.43769,3.39647,71.779-5.03125,99.47381-23.74031,27.48693-18.57119,44.14323-45.06019,46.89848-74.58785,5.71186-61.21752-50.656-116.71442-125.65424-123.712C196.82165,83.18238,191.60658,82.94275,186.46153,82.94275Z"/><path class="a" d="M200.17655,271.8421l-3.34614-.29872q-2.96754-.26425-5.92414-.50991c-6.1386-.51866-12.48729-1.05483-18.71781-1.8755-4.01143-.52961-5.58711-6.48875-5.65277-6.74262h0q-7.01508-27.32991-13.866-54.70031l-1.40936-5.59258-5.76,64.53958-36.50773-3.25751,4.87368-54.65982c3.95891-44.3949,8.05131-90.30092,8.25265-92.45217l.30857-3.32426,7.16936.615c9.14116.77909,20.51672,1.74966,29.102,2.729,2.47295.28121,6.47125,2.43027,7.23721,5.57835,11.40839,46.75187,22.8124,94.33424,33.84219,140.35078l.77471,3.228a5.728,5.728,0,0,1,.01532,2.28583c-.03064.20353-.06565.44426-.09191.73861Zm-26.30736-9.2462c5.82128.74408,11.80669,1.24961,17.60389,1.73873.64341.05471,1.289.10942,1.9324.16413l-.16413-.69046c-11.00134-45.894-22.37471-93.35053-33.75247-139.97983a3.97328,3.97328,0,0,0-1.5538-.83708c-8.48681-.96839-19.80985-1.9335-28.90942-2.7104l-.5121-.04377c-1.03951,11.58347-4.54541,50.90335-7.95064,89.10384l-4.27842,47.96426,23.11879,2.06262,7.54575-84.57375,5.29607,7.94954a21.031,21.031,0,0,1,2.80122,6.89472l4.14274,16.43416q6.89033,27.34634,13.85945,54.67077h0A7.11061,7.11061,0,0,0,173.86919,262.5959ZM159.59612,123.94664Zm-.19259-.46614v0Z"/><path class="a" d="M259.11808,276.77378l-36.35016-3.24329,5.81471-65.19064L206.569,257.2714l-2.195-.01969c-2.8756-.02517-2.8756-.02517-7.119-17.84244-2.01119-8.44851-4.34845-18.51757-5.83-25.00523-.5121-2.23769.42893-4.38894,1.11611-5.96024l.09191-.21009q6.35526-14.64239,12.73678-29.28256,10.96413-25.17648,21.86918-50.377c1.2518-2.903,3.43149-6.155,9.174-5.53021,7.804.84583,15.46577,1.50456,23.57836,2.20158q4.57605.39391,9.20024.801l3.34833.29873Zm-29.05825-9.3425,22.96122,2.04839,12.22469-137.032q-2.92487-.256-5.83-.50444c-7.79307-.66967-15.84875-1.36231-23.725-2.21581-1.46408-.15428-1.55161-.17069-2.28037,1.51113q-10.88206,25.22079-21.87575,50.39563-6.375,14.63745-12.73678,29.27927l-.09848.22323a9.19289,9.19289,0,0,0-.69811,1.94443c2.18407,9.50225,5.18225,22.32219,7.23283,30.7718l25.24815-56.11843,6.50188,2.09763Z"/></svg>