<svg id="Layer_1" data-name="Layer 1" xmlns="http://www.w3.org/2000/svg" viewBox="0 0 52.55781 40.92001"><title>SUN</title><path style="fill: var(--copy)"  d="M39.69217,12.71646l1.9-4.61329-1.80858-.74542L37.76607,12.2564a54.96238,54.96238,0,0,0-10.50881-1.122V6.35192H25.30055V11.1344a54.96218,54.96218,0,0,0-10.50747,1.1217L12.77664,7.35775l-1.811.74542,1.89922,4.61344c-6.78876,1.79081-11.2145,4.92045-11.2145,8.56031,0,5.69931,10.81805,10.16343,24.62851,10.16343s24.62852-4.46412,24.62852-10.16343C50.90742,17.63691,46.48123,14.50727,39.69217,12.71646ZM26.2789,29.48364c-13.562,0-22.6718-4.24312-22.6718-8.20672,0-3.9624,9.10981-8.20552,22.6718-8.20552s22.67181,4.24312,22.67181,8.20552C48.95071,25.24052,39.84089,29.48364,26.2789,29.48364Z"/><path style="fill: var(--copy)" d="M26.2789,15.70663a5.5703,5.5703,0,1,0,5.5703,5.57029A5.57689,5.57689,0,0,0,26.2789,15.70663Zm0,9.18388a3.61359,3.61359,0,1,1,3.61359-3.61359A3.61767,3.61767,0,0,1,26.2789,24.89051Z"/></svg>
