<svg xmlns="http://www.w3.org/2000/svg" viewBox="0 0 396 392.32456"><defs><style>.a{fill:#eb212e;}</style></defs><title>Artboard 1 copy 4</title><path class="a" d="M171.06134,304.06677l-45.76517-10.02588,30.686-140.07258,7.31272,1.602-29.084,132.75986,31.13973,6.82186,15.36169-70.12154,23.84666,5.22414-1.57523,7.31858-16.56073-3.628Zm53.09692-64.26559-.164-7.48444a46.7305,46.7305,0,0,0,23.65359-6.5176c13.04005-8.16917,21.35661-21.09925,25.38863-39.50422,4.04629-18.47014,1.8843-33.58258-6.61169-46.1984-7.378-10.98915-19.5696-18.214-37.27473-22.09275l-54.9864-12.046L168.681,130.98454l-7.31271-1.602L168.45294,97.043l62.29912,13.648c19.68148,4.31166,33.38242,12.56416,41.88648,25.22852,9.69573,14.39885,12.21805,31.40231,7.71063,51.97735-4.48493,20.47239-13.8933,34.95291-28.76381,44.26934A54.14066,54.14066,0,0,1,224.15826,239.80118Zm-19.12942-37.7829-3.1761-.6958,1.602-7.31271,3.17611.69579c7.7644,1.701,12.57615,1.46409,17.1662-.84392,2.82413-1.5152,8.04671-5.68569,10.32633-16.09149,1.65286-7.54481.66827-14.18744-2.77126-18.70262-3.17089-3.9736-7.44312-6.208-15.18253-7.9035l-11.29578-2.4746-7.42066,33.87308-7.31271-1.602,9.02266-41.18579,18.60851,4.0766c9.48189,2.07722,15.12668,5.15211,19.48353,10.61291,4.84485,6.35915,6.31176,15.18146,4.181,24.90794-2.16523,9.88359-7.20513,17.388-14.19035,21.13214C220.94552,203.67533,214.534,204.10058,205.02884,202.01828Z"/><path class="a" d="M252.9718,362.03487,83.13686,324.82874A38.35536,38.35536,0,0,1,53.91115,279.207L97.40741,80.65943A38.35537,38.35537,0,0,1,143.0299,51.43481L312.86484,88.64094a38.3538,38.3538,0,0,1,29.22392,45.6214L298.5925,332.80986A38.35379,38.35379,0,0,1,252.9718,362.03487ZM141.42789,58.74752a30.86006,30.86006,0,0,0-36.70776,23.51393L61.22386,280.809a30.86009,30.86009,0,0,0,23.515,36.70707l169.83493,37.20613a30.85968,30.85968,0,0,0,36.706-23.51432l43.49626-198.54751a30.85969,30.85969,0,0,0-23.51323-36.70668ZM256.53878,345.75266,86.70384,308.54653a21.66689,21.66689,0,0,1-16.51047-25.7726L113.68963,84.22642a21.74131,21.74131,0,0,1,1.566-4.56927l3.10264-6.60416L270.05593,345.02238l-5.19572.90491A21.47554,21.47554,0,0,1,256.53878,345.75266Zm-136.69-254.6584L77.50608,284.37594a14.17276,14.17276,0,0,0,10.79978,16.85787l169.46,37.124ZM277.90515,340.2467,126.22546,68.3065l5.31788-.822a21.52174,21.52174,0,0,1,7.91977.23164l169.83494,37.20613a21.66729,21.66729,0,0,1,16.5085,25.7731L282.31029,329.24287a21.66624,21.66624,0,0,1-1.36269,4.162ZM138.64129,75.19976,276.25208,321.91441l42.24175-192.82106A14.172,14.172,0,0,0,307.696,112.235Z"/></svg>