<svg id="Layer_1" data-name="Layer 1" xmlns="http://www.w3.org/2000/svg" viewBox="0 0 1000 1000"><title>Artboard 1</title><path style="fill: var(--copy)"  d="M487.54112,566.13781c3.03735.41453,5.8787.84133,8.7302,1.18384,7.34239.88181,14.68083,1.80926,22.03688,2.56148,6.98183.714,14.00432,1.05688,20.97125,1.88077,6.50886.76983,12.37625,2.63946,17.79651,7.11755,4.10035,3.38765,6.32179,7.73361,9.46288,11.57732a45.307,45.307,0,0,1,4.337,6.1441c3.33395,5.848,1.58891,11.558-1.18076,16.9288-2.29337,4.44716-6.38908,7.42747-10.85727,9.24935a4.071,4.071,0,0,0-2.91056,4.32256c-.14308,7.58028.17953,15.1793-.22737,22.74126-.30326,5.63432-1.7298,11.20161-2.17105,16.83663-.47788,6.10309-.436,12.24946-.54281,18.37831-.13537,7.7627-.18549,15.52688-.28468,23.29028-.07789,6.0917-.76194,12.18883,1.32114,18.176a12.03186,12.03186,0,0,1,.17874,5.98708c-1.46141,7.46085-3.34524,14.841-4.72026,22.31595-.64217,3.49079-.38071,7.1385-.7057,10.699-.73679,8.07243-4.38792,14.8438-9.57652,20.89869-7.14681,8.34012-16.432,12.62141-26.99127,14.97953a64.61116,64.61116,0,0,0-11.53071,3.51522c-5.03894,2.16089-11.05055,2.04514-16.64027,2.93247-5.14812.81732-10.27429,1.79735-15.4412,2.46519-4.9766.64313-9.9893,1.02262-14.993,1.43452-3.77139.31052-7.55066.563-11.33155.7099-6.97723.27109-13.957.51879-20.93813.63393-4.52536.07456-9.06727.0842-13.57979-.21134-7.05946-.46237-14.1078-1.13565-21.14645-1.85991-4.5402-.46719-9.03879-1.4913-13.58391-1.72621-9.1035-.47034-17.74446-2.81689-26.28969-5.71528-6.37134-2.16106-12.84436-4.07424-19.07121-6.59428-5.986-2.42243-12.18352-4.80719-17.42474-8.45061-5.40155-3.75469-9.633-9.15471-14.63771-13.53642-2.12326-1.859-4.92592-2.93483-7.3961-4.4065-4.15849-2.47728-5.62556-6.79362-5.6656-10.98922-.09629-10.09225.98621-20.19721.84786-30.28692-.13906-10.13922.74078-20.343-1.41384-30.43509-.67038-3.14021-.23193-6.516-.31189-9.78374-.12393-5.06155-.35451-10.12309-.34005-15.18412.006-2.10787.82214-4.22337.757-6.3195-.20617-6.63477-1.08447-13.27611-.87015-19.88792.16477-5.08117-.71406-10.28011,1.38926-15.31782,1.79139-4.29049.16424-8.03853-3.07547-11.05117-3.035-2.82224-6.3008-5.7802-8.19352-9.35221-2.50642-4.73017-6.29713-8.68928-6.844-14.76494-.6168-6.85259.4568-12.39623,5.98252-16.64825a41.87893,41.87893,0,0,1,25.09679-9.08664c6.64051-.122,13.05118-1.44135,19.56205-2.00965,6.65072-.58066,13.00952-2.12715,19.48723-3.35883,5.332-1.01385,10.7806-1.39938,16.13974-2.29074,3.2455-.53974,6.61711-2.582,9.57731-2.03392,4.19184.7764,7.79341-1.0298,11.73561-.97854,6.94591.09033,13.91083-.71218,20.84578-.4813,9.52859.31718,19.03366,1.29625,28.55454,1.901,7.36241.4679,14.73734.741,22.09857,1.22432a2.62651,2.62651,0,0,0,3.1746-2.41954c.72094-3.51339,1.54834-7.00829,2.15594-10.541a343.96679,343.96679,0,0,0,4.66594-35.851c.38768-5.92864,1.49879-11.81592,1.76423-17.74517.32244-7.201-.08442-14.43286.16035-21.64.25861-7.61576.662-15.26692,3.88993-22.38622a48.191,48.191,0,0,0,4.26508-20.19309A73.7041,73.7041,0,0,1,465.51235,418.34a101.663,101.663,0,0,1,3.70177-13.202c.8263-2.37437,2.44193-4.471,3.67641-6.707,6.4045-11.59985,12.64138-23.29594,19.25485-34.77531,4.54678-7.89215,9.38551-15.6467,9.90449-25.01535.78385-14.14893,6.57422-26.57025,12.79708-38.8863a7.46527,7.46527,0,0,0,.77894-1.52937q2.35627-10.17216,4.63747-20.36171c.45869-2.04974.818-4.12183,1.21906-6.18444.06229-.32.23184-.88111.1373-.93206-4.0215-2.16361-1.73865-5.261-1.46054-8.2475.76834-8.255.62885-16.62788,1.88514-24.79468,1.23466-8.0256.50741-16.36633,4.8361-24.03554,2.36916-4.19753,2.65568-9.65187,3.50367-14.6042.8953-5.228,1.33042-10.5343,1.98845-15.80364.28415-2.27593-.4233-3.65551-2.94456-3.87307a56.37393,56.37393,0,0,1-5.9799-.94809c-3.92555-.77071-7.10274,1.35066-10.44912,2.703-3.203,1.29436-6.34948,2.75517-9.42827,4.32431-6.091,3.10438-12.36538,5.945-18.11536,9.60031a284.11317,284.11317,0,0,1-28.62569,16.02636c-4.23293,2.04988-8.03222,5.00359-12.28311,7.00619-8.31908,3.919-16.7689,7.6151-26.09149,8.524-1.67574.16336-4.35249-2.81883-3.76574-4.50148.63669-1.82579,1.46965-4.079,2.93781-5.0131,2.843-1.809,5.43315-3.40329,7.26257-6.54005,1.79831-3.08335,4.60193-5.64939,7.22948-8.16566,5.49067-5.258,11.15627-10.33338,16.74941-15.48443,3.50809-3.23077,6.94262-6.54658,10.55015-9.66209,2.075-1.792,4.42929-3.2606,7.69274-5.62424-1.61848-.23241-2.29341-.36643-2.97475-.42123-6.01976-.48437-12.05336-.83787-18.05525-1.48564a26.56355,26.56355,0,0,1-7.23943-1.82456c-4.20524-1.7443-6.99133.56068-9.69183,3.01917-3.50743,3.19309-6.93289,6.48945-10.2133,9.91412-2.12369,2.21705-3.91618,4.75023-5.873,7.12863-2.13916,2.6-4.41491,5.09695-6.41935,7.79609-3.33329,4.48847-7.86872,7.27824-12.92917,9.1976-3.62449,1.37468-7.62106,1.83994-11.13121,3.42187-2.78461,1.25494-5.59016,1.24859-8.39733,1.49174-1.29555.11228-3.32185-.46925-3.863-1.40416-.63762-1.10147-.282-2.99656.10562-4.42175a32.53954,32.53954,0,0,1,2.41919-6.25252,88.37848,88.37848,0,0,1,6.41077-11.4862c2.84984-3.96424,6.46557-7.36924,9.59952-11.141,2.01232-2.42186,3.7267-5.089,5.62643-7.60708,5.66806-7.51281,11.11355-15.21776,17.20784-22.36887,1.66705-1.95617,5.28077-2.31672,8.05342-3.25509,7.72546-2.61449,15.73735-1.7131,23.56519-1.14484,4.09545.29729,8.12518,2.51929,12.02169,4.24076,3.6779,1.62492,6.96812,4.27174,10.7445,5.49317,4.80981,1.55565,9.77423.40231,14.28544-1.75188,5.0226-2.39842,10.115-4.48334,15.74686-4.42726a127.56924,127.56924,0,0,1,28.57964,3.2988c5.13743,1.23054,10.41294,1.89912,15.64307,2.71268a4.14692,4.14692,0,0,0,2.45179-.58955c2.606-1.47351,4.98014-3.55931,7.75192-4.4777a19.6123,19.6123,0,0,1,8.23041-.54355A112.15929,112.15929,0,0,1,570.608,147.155c3.8417.88225,7.63241,1.996,11.49032,2.79083,1.08815.22422,2.34094-.27754,3.50541-.511,3.19691-.64076,6.60734-1.30146,9.35669.66289,2.26147,1.61585,4.78834,3.45241,3.976,7.268-1.062,4.98909-.11969,5.931,4.56851,7.054,1.89671.45435,3.58594,1.7124,5.43779,2.42786,9.84122,3.80215,19.68183,7.608,29.56686,11.29384,7.4081,2.76213,14.97593,5.11779,22.28616,8.11,3.30783,1.3539,6.13813,3.85445,9.22928,5.76308,4.68732,2.89422,9.18854,6.23605,14.18718,8.43772a74.53326,74.53326,0,0,0,15.27419,4.39677c7.76918,1.56959,15.01553,4.57053,22.33216,7.39522,5.06409,1.955,9.95162,4.36962,15.02333,6.30212,4.26561,1.62535,8.75175,2.67158,13.0192,4.29268,8.059,3.06127,15.753,6.534,22.88881,11.80409,5.63134,4.15893,10.75054,9.51361,17.8787,11.68978,2.0065.61251,3.53214,2.74317,5.3301,4.1093,2.76485,2.101,5.61312,4.09343,8.35685,6.22119,4.80622,3.72732,9.54507,7.54151,14.345,11.2771,1.40508,1.09345,3.1184,1.85969,4.30916,3.13255.66389.70959,1.06326,2.85115.6801,3.13658-1.21091.90183-3.09237,2.02056-4.27735,1.65155-5.98655-1.86416-12.08105-2.34152-18.28481-2.65787-7.28245-.37138-14.55317-.78989-21.65389-3.07086-5.54872-1.7825-11.48331-2.33035-17.1094-3.91368-8.21525-2.312-16.33684-4.97275-24.43951-7.66207-3.69047-1.22489-7.14235-3.24751-10.88092-4.22727-3.89234-1.02008-8.04273-1.00947-12.00465-1.81948-8.99139-1.83822-17.93871-3.89291-26.89935-5.88027-6.34185-1.40661-10.967-5.30473-15.71886-9.60053-5.7605-5.20765-12.58443-9.23576-18.92471-13.80681-2.41463-1.7408-4.60356-3.85752-7.17617-5.30347-5.73587-3.22385-11.65329-6.1239-17.48765-9.17351q-6.75366-3.53035-13.48367-7.10621c-6.89649-3.67347-13.771-7.38834-20.68561-11.0272-.5308-.27929-1.64874-.37006-1.88751-.06852a2.69215,2.69215,0,0,0-.37466,2.10923c.65864,2.39168,1.50794,4.73035,2.26349,7.096,3.09877,9.70309,4.52575,19.77361,6.69356,29.682,1.50128,6.86206,4.34192,13.47842,7.0669,20.00292,1.14923,2.75188,3.58568,4.953,5.3585,7.46006,4.46275,6.31158,9.59623,12.11947,12.60589,19.46352A176.57515,176.57515,0,0,0,635.821,295.545c5.32659,9.51085,11.35179,18.64,16.44654,28.26663,2.11752,4.00121,2.82067,8.82044,3.77248,13.35058,1.06178,5.05388,2.26454,9.992,5.08162,14.40421a43.89484,43.89484,0,0,1,3.73778,6.28485c.50136,1.18664.55937,3.53792-.14633,4.05948-1.61448,1.19326-3.69853.86556-5.46109-.50131-4.05935-3.14819-8.03187-6.43416-12.28459-9.301-6.24022-4.20669-12.84878-7.87494-19.01224-12.18484a186.14287,186.14287,0,0,1-16.66271-13.01719c-4.90234-4.3354-7.245-10.4914-9.98465-16.308-1.883-3.99771-3.91224-7.9407-6.1172-11.76939-3.60065-6.25222-8.30226-11.78183-10.33242-19.04142-1.231-4.40172-4.48456-8.20145-6.49273-12.43157a168.173,168.173,0,0,1-6.65159-15.62537c-2.04067-5.732-3.63229-11.63262-5.21584-17.5146a76.44714,76.44714,0,0,1-1.34672-7.75555l-8.03292-.52218c-1.80436,9.66971-3.5671,20.18556-5.765,30.60968-2.458,11.65745-5.49711,23.19285-7.928,34.85547-1.71683,8.237-3.02789,16.57215-4.16222,24.91213-.69965,5.14431-.78665,10.37707-1.04119,15.57539-.34531,7.05354-4.2423,12.32678-8.22586,17.74052a28.95346,28.95346,0,0,0-5.628,13.27409,142.78113,142.78113,0,0,1-3.47965,18.827c-1.4276,5.12363-4.19753,9.85774-6.06585,14.87867-1.66215,4.46722-4.0201,8.58484-3.73612,13.86018.27031,5.02111-.16052,10.65828-2.28057,15.0632-2.02613,4.20975-2.261,8.44035-3.27822,12.65917-1.07939,4.47686-1.86683,9.03437-3.16633,13.44328-.59318,2.01237-2.71674,3.642-3.08089,5.63927-.75757,4.154-.73321,8.44482-1.16421,12.66574-.4268,4.18062-1.44582,8.34923-1.39921,12.514.03549,3.162-.541,6.27981-.03864,9.56075.5011,3.27182-.81591,6.80992-1.25209,10.24191-.28546,2.24561-.28695,4.53258-.65513,6.76146-.65645,3.97427-1.59066,7.90307-2.2344,11.879-1.0602,6.5475-2.0192,13.11243-2.91713,19.68411a5.89058,5.89058,0,0,0,.58906,2.75433c1.75276,4.431-.76448,8.58046-.8535,12.90416C489.28923,559.4425,488.22439,562.6225,487.54112,566.13781Zm-198.4726,61.291a46.85106,46.85106,0,0,1-.91563,6.78451c-2.261,7.8681-.67989,15.78992-.634,23.6936.02519,4.34175-.22365,8.68525-.35639,13.0277-.02348.769-.1338,1.53808-.118,2.30528.06681,3.25237.17967,6.50369.25,9.756.09389,4.34332-.01607,8.70006.29379,13.02735.3235,4.51751,1.37643,8.99709,1.50742,13.51075.1904,6.56431-.20525,13.144-.26089,19.71775-.03106,3.66725.31613,7.34528.1433,11.00192-.25883,5.47521-1.1264,10.93446-1.15014,16.40309-.01472,3.374.57921,6.81772,3.80468,9.2292,6.25791,4.67864,12.76335,9.16155,18.34146,14.57533,5.27666,5.12139,11.4731,8.06034,18.08132,10.4769,7.026,2.56955,14.26643,4.56781,21.23647,7.27124a62.41549,62.41549,0,0,0,17.42754,4.53232c9.10679.78674,18.10279,2.7794,27.188,3.92494,4.80141.60537,9.69025.55157,14.54239.712,6.26383.20723,12.53379.5344,18.7949.43215,5.93678-.09682,11.86848-.63989,17.797-1.06362,5.2494-.37519,10.4847-.98144,15.73827-1.2549,5.0633-.26338,10.11551-1.638,14.95205-1.81829,6.51792-.24323,12.27877-3.237,18.65987-3.29863a20.60173,20.60173,0,0,0,5.44822-1.16728q8.8877-2.61927,17.73325-5.38066c5.085-1.58872,9.74457-3.73077,13.67109-7.66982a97.77248,97.77248,0,0,0,6.78021-8.33985c3.67637-4.58148,4.80728-9.882,5.54837-15.29916.76273-5.57526.58653-11.27872,1.34812-16.85424.53229-3.89655,2.657-7.64214,2.82128-11.50811.30422-7.15917-.37624-14.35593-.51345-21.53955-.10208-5.3464-.00062-10.69674.0219-16.04533.02506-5.96842-.03286-11.93946.127-17.90455.12451-4.64719.384-9.30122.84711-13.92589.45422-4.53688,1.55605-9.02276,1.81-13.56262.40235-7.19562.35136-14.41735.45536-21.62857.02655-1.84125-.42916-2.51391-2.67329-1.88033-4.53267,1.28-9.21955,2.01789-13.849,2.94833-1.33252.26785-2.72752.28818-4.0229.66565-4.79343,1.39649-9.82842,2.33341-14.27234,4.47905-7.75411,3.74409-16.08923,4.28751-24.30291,5.55213-4.69083.72217-9.47659.81224-14.21307,1.25735-6.59279.61947-13.16671,1.58215-19.77221,1.88532-6.73237.30912-13.49489-.1069-20.24115-.00421-4.251.06475-8.49358.65312-12.7449.72935-5.78451.10375-11.57361-.0757-17.36091-.09787-3.84731-.01472-7.6951.06905-11.54219.04258-3.726-.02558-7.45506-.27784-11.17616-.17962-8.24237.21739-16.48466.89951-24.71893.78955-5.05151-.06756-10.09067-1.2315-15.12992-1.94166a47.1563,47.1563,0,0,1-5.04367-.9187c-3.67089-.93324-7.32552-1.93579-10.96662-2.98013-5.20042-1.49138-10.38464-3.03954-15.57223-4.57552-3.30809-.97959-6.587-2.70369-9.91951-2.80831C297.56009,632.34309,293.20116,630.10255,289.06852,627.42883Zm155.87112-46.07211c-3.60328-.65251-7.1487-1.70842-10.72938-1.84581-5.31-.20363-10.66748.62578-15.96328.31307-6.03316-.35644-12.00114-1.73952-18.03378-2.20321a106.35663,106.35663,0,0,0-17.09577-.22334c-5.771.49163-11.44235,2.07265-17.18374,3.01623-4.88324.80269-9.80477,1.37143-14.7079,2.05443-3.942.54911-7.95546.80821-11.80728,1.73566-8.3211,2.00379-16.53119,4.46521-24.83945,6.52673a23.9,23.9,0,0,1-17.85649-2.89155c-3.63925-2.11619-6.13721-1.75538-9.24738-.02628-3.57941,1.9902-5.07675,7.93347-2.82254,11.04924,3.54975,4.90655,8.18134,8.70864,12.81522,12.469a21.4864,21.4864,0,0,0,5.9122,3.02894c4.22193,1.61159,8.48973,3.12322,12.80291,4.47011a107.48957,107.48957,0,0,0,13.54782,3.71281c5.68281.98266,11.48484,1.27829,17.23635,1.86123,10.15157,1.029,20.29508,2.15352,30.45984,3.03051,4.791.41339,9.62441.4919,14.437.4622,7.64914-.04723,15.29675-.32358,22.94541-.48139,5.54324-.11425,11.09275-.08455,16.62661-.3694,1.27426-.06563,3.34043-.919,3.59369-1.818a97.4873,97.4873,0,0,0,2.18647-11.32857c.59823-3.80718.68756-7.72791,1.62465-11.44125C440.60022,595.48659,442.80977,588.62865,444.93964,581.35672ZM593.532,184.67542c2.41017.92141,4.72588,1.17271,6.09564,2.44364,5.06795,4.70239,11.66241,6.34824,17.55372,9.381,1.23036.63345,2.5026,1.18567,3.73156,1.82157,3.62353,1.87477,7.28508,3.68355,10.83807,5.68475,4.23819,2.38721,8.36167,4.977,12.56787,7.42229,3.19542,1.85768,6.533,3.48553,9.638,5.47937,2.539,1.63052,4.78028,3.71693,7.2382,5.48344,4.49964,3.23388,9.0968,6.33243,13.58663,9.57958,3.48526,2.52057,6.637,5.60883,10.37456,7.63907,2.79158,1.51644,6.25967,1.85023,9.46472,2.53034,8.28676,1.7584,16.62074,3.30042,24.88462,5.15736,5.33939,1.19978,10.62832,2.6721,15.859,4.28505,2.26068.69707,4.22285,2.361,6.48309,3.061,7.50948,2.32578,15.04516,4.59992,22.661,6.53934,7.53542,1.919,15.13067,3.7034,22.79322,4.98962,5.8553.98292,11.85491,1.12083,17.79563,1.56134a5.60615,5.60615,0,0,0,1.9322-.62158,5.2094,5.2094,0,0,0-.89951-1.60121c-2.10936-1.73356-4.28243-3.39037-6.45269-5.04875-3.74313-2.8604-7.3968-5.85307-11.27565-8.51715-6.637-4.55861-13.59539-8.66515-20.08847-13.41328a64.78452,64.78452,0,0,0-19.63522-9.73787c-4.26744-1.29989-8.44745-2.90934-12.61071-4.52417-9.658-3.74629-19.20851-7.78421-28.95011-11.295-5.06365-1.825-10.48487-2.63285-15.66006-4.18236a70.00293,70.00293,0,0,1-10.43257-4.007c-4.73464-2.29534-9.368-4.83181-13.88813-7.52762-3.9359-2.34738-7.65475-5.05857-11.46947-7.609l-.58618.70451c.21678.34045.35925.87852.66136.9923,6.22716,2.34506,9.02189,8.358,13.02428,12.86017,4.80912,5.40949,9.405,10.34775,16.73841,12.11067,2.9924.71936,5.76882,2.30979,8.67439,3.42336,6.20578,2.37853,12.31342,5.1224,18.685,6.92645,5.59472,1.58408,11.17463,2.886,16.27149,5.87733,5.57692,3.27305,11.35845,6.19623,17.03307,9.30438,2.35917,1.29222,4.52417,3.20251,7.03607,3.89979,5.887,1.6342,12.00648,2.442,17.87256,4.13575,2.32473.67126,4.29776,2.71894,6.26676,4.3393a2.35781,2.35781,0,0,1,.13546,2.27759,3.30771,3.30771,0,0,1-2.73559.66482,50.56531,50.56531,0,0,0-17.13865-4.40567c-3.63063-.33462-7.12781-2.69891-10.56654-4.39143-4.56474-2.24666-9.00191-4.75128-13.52188-7.091-1.06406-.55078-2.289-.79007-3.35567-1.337-3.83715-1.96755-7.4881-4.40172-11.49023-5.9186-5.26106-1.994-10.84447-3.12019-16.18273-4.9334-4.35874-1.48052-8.55136-3.44588-12.83546-5.15162-4.559-1.8151-9.70217-2.78413-13.58417-5.53991-6.65264-4.72255-13.10621-9.98238-16.9501-17.60016-.432-.85622-1.5316-1.3755-2.32167-2.051-2.1417-1.83108-4.25842-3.69226-6.43061-5.48641-3.74768-3.09536-7.39452-6.34168-11.36222-9.12817-1.6547-1.16219-4.11709-1.09762-6.04745-1.95971-4.32168-1.93-8.39312-4.51222-12.83379-6.06313-7.25389-2.53345-14.721-4.45627-22.20214-6.66741C596.51918,174.3062,595.0334,179.46382,593.532,184.67542ZM445.7666,575.31969a8.91184,8.91184,0,0,1-.32752-2.789c.58661-3.46213.45286-3.85879-2.71281-3.96192-4.70581-.15342-9.42257-.03233-14.12352-.25926-6.48761-.31307-12.96286-.87375-19.447-1.269-6.09073-.37125-12.18273-.77492-18.28043-.96146-5.77522-.17673-11.57606-.38123-17.33313-.03408-5.32261.32086-10.61785,1.25822-15.89687,2.10113-7.23916,1.1557-14.45454,2.46256-21.67439,3.73708-3.52027.62131-7.01679,1.38238-10.54367,1.96023-4.794.78543-9.5972,1.5302-14.41425,2.155-5.06255.65671-10.15726,1.69965-15.21824,1.59784-9.33377-.18751-17.27075,2.59662-23.6299,9.3891a9.85163,9.85163,0,0,0-2.57783,5.43192,15.31458,15.31458,0,0,0,3.63571,11.77219c3.26625,3.80709,5.79,8.26424,9.15077,11.97284,2.57025,2.83626,5.60129,5.74849,9.03122,7.19869,5.4066,2.286,11.3022,3.44145,17.0244,4.94782,5.52913,1.45563,11.13673,2.62054,16.64426,4.14933,6.23364,1.7305,12.33051,3.97953,18.60117,5.54521,10.35262,2.58506,20.98474,2.22546,31.542,2.166,6.14913-.0347,12.29353-.66942,18.4431-.97188,3.4535-.1699,6.91528-.34233,10.36966-.28643,7.3858.11934,14.77011.57882,22.15342.54526,9.59264-.04355,19.1834-.44616,28.77569-.66259,3.57543-.08061,7.16969.13713,10.72566-.14939,6.46991-.52151,12.97316-.99229,19.36114-2.07983,8.72853-1.486,17.65491-1.91941,26.12488-4.90331,6.16784-2.17307,12.42952-4.08844,18.68787-5.99251,3.53328-1.07492,7.11694-2.02621,10.73135-2.776,1.94079-.40253,4.2119.26181,5.95615-.4636a79.127,79.127,0,0,0,14.80271-7.75937c6.36559-4.38941,7.14243-14.14573,2.44486-19.33047-1.97951-2.185-3.33526-4.93581-5.3188-7.11641-2.33832-2.57086-4.72228-5.37278-7.66675-7.06419-6.40512-3.67943-13.73532-4.20489-20.96249-4.725-4.6924-.338-9.41635-.35889-14.08387-.89136-7.16163-.8168-14.27085-2.09184-21.432-2.91223-7.292-.83546-7.32425-.6964-6.68585,6.74622.04986.58136.435,1.47754.86779,1.62334a38.09664,38.09664,0,0,0,5.91015,1.56226c6.937,1.14651,14.19226,1.29906,20.74738,3.53048,5.30924,1.80742,10.4203.88093,15.22819.4926,7.42939-.59994,13.95673-1.6406,19.97991,4.39975,3.97637,3.98768,6.48143,14.362,2.411,17.94117a42.59112,42.59112,0,0,1-11.95926,6.986c-2.91083,1.19224-6.46277.706-9.63777,1.38956-7.34142,1.58076-15.00555,2.09377-21.337,7.04465-1.98722,1.55386-4.79895,2.1021-7.28552,2.959-5.80115,1.99905-12.19846.3312-17.93013,2.84485a1.153,1.153,0,0,1-.35591.02471c-4.33461.33059-8.66422.77149-13.005.96627-6.36612.28573-12.74061.3801-19.11063.58565-3.823.12337-7.64629.26234-11.46561.46728-6.8302.36625-13.6537,1.01771-20.48688,1.12907-8.88222.14484-17.7722-.06352-26.65687-.227-8.67228-.15964-17.358-.20731-26.00817-.76378-7.63285-.49111-15.21128-1.778-22.83843-2.42016a130.71349,130.71349,0,0,1-28.01555-5.446c-2.12224-.661-4.18088-1.547-6.32722-2.105-2.84235-.7389-5.93082-.81679-8.58155-1.95322a46.57067,46.57067,0,0,1-19.21438-15.36821c-7.98783-10.83387-4.1768-19.43378,5.90914-24.30685,4.72715-2.28373,13.05653-.19023,16.94152,3.54414a4.51781,4.51781,0,0,0,3.044,1.2251,83.83039,83.83039,0,0,0,9.726-1.24446c4.365-.82433,8.83153-1.48,12.98371-2.96507a54.15072,54.15072,0,0,1,14.75877-3.25692c6.999-.48918,13.86793-2.60293,20.85225-3.60373,7.20522-1.0326,14.467-1.82223,21.73166-2.24167,6.29993-.36371,12.81119-.96706,18.912.19706a121.54232,121.54232,0,0,0,19.01325,1.65506C432.76343,574.25169,439.06949,574.85986,445.7666,575.31969Zm142.71633-377.2264c-2.51917,3.65455-4.44716,6.37795-6.2941,9.15542-1.36354,2.05057-3.54011,4.10364-3.7009,6.27789-.21712,2.93755.8621,6.09695,1.903,8.97374,1.83635,5.07522,4.92933,9.65139,5.09546,15.37622a15.21686,15.21686,0,0,0,2.31186,6.93447c3.16983,5.33576,6.35911,10.563,11.51511,14.54857,5.65885,4.37425,7.54225,11.29449,9.71636,17.8737a82.42248,82.42248,0,0,0,4.65254,11.45347c2.97733,5.86336,6.28157,11.564,9.55216,17.27351a39.49526,39.49526,0,0,0,4.17151,6.14146c3.58567,4.17431,7.71582,7.99358,9.42239,13.391.40463,1.2796-.64891,3.02022-1.03163,4.54875-1.46256-.78153-3.32895-1.23211-4.29978-2.41669-1.76423-2.15256-2.88822-4.81516-4.47336-7.13227-2.99809-4.38267-7.35325-7.71916-9.09654-13.12089a31.1191,31.1191,0,0,0-5.13357-9.48776c-4.81638-6.10839-7.17766-13.22852-9.5731-20.41083-.88759-2.66111-2.28662-5.15219-3.16641-7.81527-1.16325-3.52075-4.70818-4.89415-6.55311-7.47009-4.489-6.26742-10.87391-11.39652-12.58417-19.51561-.594-2.81992-1.76107-5.51573-2.60143-8.2879-1.57533-5.19692-3.10333-10.40816-4.65105-15.61345q-.71433-.00507-1.42865-.01017c-.65382,1.79346-1.98266,3.64706-1.82924,5.36857a63.44482,63.44482,0,0,0,2.3264,13.09841,224.97174,224.97174,0,0,0,7.9071,21.94107c2.45975,5.74827,6.41965,10.88832,8.58983,16.71672,1.839,4.93945,3.67662,9.76784,6.74481,14.01509,5.235,7.24653,9.95014,14.72039,12.58058,23.37708a16.06679,16.06679,0,0,0,3.08273,6.07369,64.78957,64.78957,0,0,0,9.58371,8.93269c6.41826,4.67028,13.14756,8.91612,19.78838,13.2761,3.81892,2.50725,7.71871,4.89126,11.78025,7.45585a17.13825,17.13825,0,0,0-.28336-2.44136c-.58557-2.32289-1.23624-4.63032-1.90267-6.93184-1.35671-4.68517-2.16869-9.63741-4.25413-13.97531-2.77327-5.76868-6.70942-10.96582-9.83868-16.57981-2.36758-4.24743-4.15722-8.81283-6.38242-13.14507-2.08773-4.06448-4.93915-7.81063-6.52314-12.04522C619.78283,273.67781,613.267,265.2,606.82373,256.686c-4.1064-5.426-7.505-11.09129-8.98526-17.75379-1.63376-7.35281-3.0596-14.75167-4.67751-22.1082-.53562-2.4351-1.47245-4.7795-2.072-7.20347C590.201,206.03053,589.45,202.40661,588.48293,198.09329Zm-24.83345,9.1435c-2.0355-2.20127-2.32149-3.81786-1.1246-5.997a8.38156,8.38156,0,0,0,.86244-2.39829c1.11523-5.73206,2.05-11.503,3.31966-17.19977.62447-2.80139,2.46449-5.42728,2.65962-8.20939.41952-5.97862.19942-12.00881.04232-18.01271-.02007-.76348-1.08763-1.84282-1.91336-2.18034a94.53407,94.53407,0,0,0-9.12317-3.19379c-1.40508-.41256-3.32571-.94774-4.38206-.33694-4.07827,2.35829-8.66045,4.20046-11.04968,8.758a7.38216,7.38216,0,0,1-2.09622,2.877c-3.83232,2.42913-6.02966,5.65219-5.19008,9.84267,1.091,5.44628,1.98477,11.32322,8.35895,13.4615,1.34838-8.09754,2.70877-16.26793,4.05672-24.36332,4.54038.34391,6.58517,2.254,5.21795,5.05471-2.41674,4.9508-1.74907,10.15271-2.4651,15.23577-.49138,3.48829-1.33989,6.94345-1.58374,10.4444-.22281,3.20049.23526,6.44231.24692,9.66646.024,6.66714.95795,12.76742,7.87362,16.14943,1.798.87918,3.20208,2.56337,4.86467,3.94211,21.27371-16.67624,29.48038-39.457,31.151-65.2369l-19.09451-1.20473a67.60942,67.60942,0,0,1,.81889,9.08414,104.27644,104.27644,0,0,1-1.353,14.70738c-1.15519,6.61374-2.6336,13.19229-4.39923,19.66982C568.37483,201.36533,569.4749,206.46236,563.64948,207.23679ZM535.4721,154.56532c-6.72984-1.066-13.27611-2.1474-19.83885-3.1177-2.21985-.32823-4.48395-.34693-6.72326-.55635-5.803-.5428-11.59967-2.13941-17.41895-.18448-4.28865,1.44074-8.54918,2.96467-12.83051,4.42749-9.23446,3.15506-17.23211-.32459-25.23922-4.45518a48.72381,48.72381,0,0,0-12.01871-4.56518c-2.87622-.60834-6.3582,1.30607-9.1046.503-4.33023-1.26624-8.13316.66727-12.18966.672a7.56379,7.56379,0,0,0-4.86506,2.138,99.68221,99.68221,0,0,0-8.7008,10.18242c-5.05064,6.79235-9.74585,13.84971-14.82111,20.62291-2.98127,3.97878-6.58815,7.48779-9.58414,11.45685-2.63746,3.49411-5.13612,7.21214-4.925,12.5107,9.57162-2.20426,18.71438-4.10781,25.07975-12.15531,2.57621-3.257,5.61216-6.14629,8.3477-9.28243,2.621-3.0048,4.97647-6.25292,7.72086-9.13478,2.63736-2.7695,5.62372-5.20665,8.45678-7.78978q-.32766-.49793-.65522-.99584c-1.26616.19272-2.95538-.06664-3.72649.65509-3.68166,3.44557-8.53839,5.561-11.182,10.22657a23.9835,23.9835,0,0,1-4.6779,5.4034c-4.54534,4.23744-9.2256,8.33-13.84585,12.48735-1.14774,1.03264-2.30183,3.09684-3.8807,1.2003a4.42833,4.42833,0,0,1-.02619-4.27213c2.61269-3.14556,5.695-5.89959,8.58256-8.81865,6.21116-6.279,12.41168-12.56844,18.66517-18.9028a1.565,1.565,0,0,0-.46754-.534c-1.72327-1.08943-2.26586-3.0356-1.24648-4.29.60256-.74149,2.93527-.36222,4.40374-.06339,5.3195,1.08263,10.58713,2.419,15.904,3.51641,4.7621.98283,9.55579,1.82153,14.35269,2.62111,1.129.18821,2.348-.194,3.48881-.04022,2.90469.39162,5.7912,1.35115,8.68025,1.333,5.40695-.034,10.80649-.70854,16.21677-.91015,4.8506-.18076,9.71307-.16416,14.56722-.0736,2.19068.04083,4.42718.90687,6.551.64738,6.91752-.8454,13.76809-2.27856,20.6956-2.98285a21.33287,21.33287,0,0,1,9.08593,1.14638c2.49858.89753,3.65534.94735,4.56413-1.71806C533.59966,159.32392,534.46438,157.22,535.4721,154.56532ZM482.71116,624.21221a106.26381,106.26381,0,0,1,10.619-1.51267c4.178-.20582,8.29692-.397,11.95725-2.621,9.71846-5.90463,20.4662-8.10372,31.57861-9.4946a23.84356,23.84356,0,0,0,10.57128-4.21768c3.95955-2.86316,1.57943-11.57128-3.33272-13.48-4.60321-1.78859-9.12318-1.0857-13.95612-.36722-5.19491.77229-10.721-.21633-16.041-.90923-3.86247-.50312-7.60166-1.88725-11.43731-2.67758-4.91759-1.01324-9.87-1.86552-14.82707-2.66654-.5556-.08981-1.731.535-1.78771.94393-.8868,6.39311-1.79726,12.79095-2.37108,19.21727C483.153,612.37544,483.01581,618.35919,482.71116,624.21221ZM444.20574,207.7761q-.64671-.20064-1.29332-.40122c0-1.68239-.68431-3.89843.13152-4.94457a41.72768,41.72768,0,0,1,7.75126-7.71363c5.63266-4.21926,11.57137-8.02889,17.36573-12.03365,3.785-2.61594,6.74933-6.28766,11.674-7.40736,4.12323-.93744,7.99831-2.96629,11.98327-4.51182-2.36119-1.15435-4.75777-2.13762-6.78687-1.63547-2.7192.67292-5.18426,2.44083-7.70373,3.83723a118.56759,118.56759,0,0,0-11.52655,6.67521c-3.3456,2.38357-6.12535,5.54525-9.29176,8.20036-4.13247,3.46515-8.5557,6.5959-12.56231,10.195a116.75652,116.75652,0,0,0-9.444,9.84166c-3.097,3.51882-5.95247,7.25026-8.91363,10.88868a21.482,21.482,0,0,0,7.74119-1.8809c9.08208-4.40991,18.149-8.86163,27.086-13.55587,5.5-2.889,10.7582-6.23912,16.11854-9.39305,3.96686-2.33411,7.91572-4.699,11.888-7.02384,1.86963-1.09428,3.73489-2.20868,5.67541-3.16554,2.22774-1.09862,4.52908-2.05009,6.81193-3.03432,3.01238-1.29866,6.3649-2.1095,8.96923-3.97186,2.83486-2.02718,5.62582-3.698,9.08051-3.738,3.60486-.04171,7.21393.28783,10.83728.45584-.64041-4.4521-4.54178-7.02384-9.51028-6.11759-5.79063,1.05626-11.60116,2.09544-17.29147,3.572-2.76318.717-5.3032,2.35334-7.88869,3.68166-3.48982,1.79288-6.85312,3.84731-10.40725,5.49487-3.11984,1.44626-6.57417,2.20733-9.60578,3.79579-2.35891,1.236-4.19788,3.423-6.43811,4.9352a96.592,96.592,0,0,0-15.2996,12.14852C450.72607,203.65033,447.28287,205.53364,444.20574,207.7761ZM447.77936,589.592c-1.165,4.94343-2.37047,9.87793-3.46309,14.83749-.23522,1.06782-.55157,2.71578-.00127,3.26376,4.22973,4.21137,8.85856,7.47153,15.4489,6.01319a26.65073,26.65073,0,0,1,8.80775-.62351c3.05342.37265,5.59541-.62412,8.18774-1.66452a3.2272,3.2272,0,0,0,1.41112-2.32464,19.7984,19.7984,0,0,0-.27828-3.99083C468.60626,605.58611,453.10272,601.49829,447.77936,589.592Zm5.47459-32.00393c-1.30045,1.50163-1.66395,3.36855.656,5.2728.63941.52485.74994,1.65558,1.20487,2.45,2.004,3.50007,3.69,7.26581,6.195,10.36668,1.73379,2.14617,5.12652,2.95735,6.84427,5.11009,1.78407,2.2358,3.21382,2.64271,5.42127,1.30168,2.121-1.28862,4.204-2.64288,6.26409-4.02728.73815-.496,1.86929-1.1069,1.943-1.76379a35.14642,35.14642,0,0,0-.00074-6.55328c-.02856-.376-1.13358-1.025-1.66027-.95313-4.79908.65479-8.56766-2.09771-12.81058-3.35471C461.8373,563.81562,459.54713,557.958,453.254,557.58811Zm-1.42571,15.57841c.51626-.24183.26059-.196.13459-.04329a1.14417,1.14417,0,0,0-.22387.66013c-.08355,3.39765-2.31707,6.956.81942,10.13282.43144.437.339,1.34637.67581,1.92922,1.3607,2.35523,2.45661,4.98234,4.27012,6.93285,4.03491,4.33965,9.829,5.31722,15.20585,6.88335,3.7136,1.08158,5.872-.163,6.43517-3.80736.53588-3.46782,2.93093-6.98174.28275-10.66923-1.22331.61308-2.45893,1.29669-3.74729,1.85974-1.27724.55831-2.59373,1.03672-3.91767,1.47622-2.41135.80015-6.41725-.93622-7.79827-2.94544a33.75314,33.75314,0,0,0-4.04638-4.38074C457.30927,578.56339,454.65986,575.97176,451.82824,573.16652Zm18.59333-152.10447c-.21594,2.62948-.546,5.65237-.667,8.68354-.04021,1.0089.12022,2.50178.76975,2.97335a38.7691,38.7691,0,0,0,6.42864,3.67522c5.99018,2.78807,12.19947,1.17275,18.34391.70819,4.468-.33786,5.6486-1.406,5.87422-5.54052a8.91327,8.91327,0,0,0-.31814-2.26481C490.49839,427.4584,480.36355,425.47964,470.42157,421.06205Zm14.57726,110.88327c-.971.75318-1.968,1.53992-2.97882,2.30852-5.66258,4.3053-8.35777,4.81534-12.69041.86656-3.59877-3.27979-9.36378-4.31975-10.73753-10.12029-.52931,4.17536-.80693,8.24014-1.01722,12.30825a1.9055,1.9055,0,0,0,.58679,1.21906c5.83357,5.976,12.25419,10.71742,21.27621,8.95284,1.70938-.33427,4.42385-1.39964,4.629-2.50689C484.83156,540.8469,484.74464,536.56263,484.99883,531.94532Zm5.98944-34.54833a60.42211,60.42211,0,0,0-7.26633,3.51067c-5.32936,3.47808-10.41053,1.98915-15.47988-.38465-2.36657-1.10822-4.60141-2.49787-7.51591-4.10088-.26808,4.738-.50215,8.87556-.74885,13.23624.69676-.3872,1.40521-1.11015,1.84283-.9725,3.72113,1.17148,7.65773,2.0391,10.98155,3.951a6.10925,6.10925,0,0,0,5.33943.49488c4.46157-1.33822,9.25886-2.58172,11.32555-7.32407C490.52765,503.37277,490.477,500.45344,490.98827,497.397Zm29.55591-144.044c-5.06821.60317-10.65582,1.17288-16.20209,2.01565a4.38765,4.38765,0,0,0-2.68336,2.21434c-1.33761,2.65361-1.6887,6.12862-3.63317,8.07979-3.29039,3.30166-.71585,4.85836,1.29923,6.1306a7.16162,7.16162,0,0,0,5.32616.387c4.41238-1.38286,8.69148-3.20554,12.97172-4.97884a2.6687,2.6687,0,0,0,1.21975-1.82757C519.51026,361.16214,520.05088,356.93013,520.54418,353.353Zm-22.96881,69.97153c5.36892.01792,8.0932-3.81752,6.76962-7.90258a1.42715,1.42715,0,0,0-.98739-.79283c-4.011-.4456-8.10241-.48573-12.02244-1.32977a25.0934,25.0934,0,0,1-8.7012-3.64245c-1.47289-1.00492-1.935-3.51335-2.81186-5.3641-1.04-2.195-2.17481-2.32158-3.315-.13213-.92242,1.77141-2.14419,3.53875-2.46528,5.43778-.55647,3.29106-.55183,6.761,3.38867,8.29219a67.5814,67.5814,0,0,0,7.52967,2.40535C489.52318,421.47724,494.12621,422.50384,497.57537,423.32449Zm-30.56424,26.684c-1.5613,3.30047-2.69,5.68645-3.79947,8.03169a22.52871,22.52871,0,0,1,2.13793,1.60712c3.85323,3.72394,8.71325,5.69066,13.52889,7.68954a4.57441,4.57441,0,0,0,5.92942-1.51145c1.25245-1.68537,2.31922-3.97444,4.03465-4.76136,4.83128-2.2167,5.275-6.89889,7.19281-10.88907-3.4262,1.47377-6.33055,3.89213-9.663,4.91295a19.61109,19.61109,0,0,1-10.35393.51643C472.767,454.72051,470.02285,451.97064,467.01113,450.00848ZM477.30947,618.0449c-3.761,0-7.76721-.82092-11.26571.16314-8.45962,2.3795-16.05072,1.40508-23.13449-4.04927-.69006,4.18824-1.31378,7.97386-1.97356,11.97819a48.095,48.095,0,0,0,5.86581.42c9.12979-.38719,18.25047-1.07554,27.38267-1.27154,3.04151-.06528,4.87693.08665,3.19651-3.72009C476.91312,620.50614,477.30947,619.06549,477.30947,618.0449ZM461.7747,465.2371c0,1.69186-.80755,4.32843.16205,5.76707a61.25663,61.25663,0,0,0,8.22389,9.13386c1.00425.98362,2.7397,2.01307,3.96888,1.83468,4.78085-.6936,9.455-2.228,14.24382-2.72183,2.90233-.29931,3.72227-1.92764,3.93528-3.98338.31841-3.07266.08271-6.2028.08271-10.3708-1.08876,1.51127-1.68484,2.25157-2.18743,3.05067-2.6994,4.29163-7.85584,6.67857-11.78214,5.007C472.85062,470.58254,467.42233,467.87508,461.7747,465.2371Zm29.33957,19.43378c-4.61284.92132-8.90789,1.51022-13.03563,2.68643-3.4839.99265-8.60608.20968-11.0385-2.45117-1.95586-2.13942-3.8315-4.35226-6.25581-7.1179,0,3.04488-.37173,4.95658.08884,6.64072.65969,2.41218-1.03821,5.68549,2.37319,7.16723,4.45482,1.93509,8.85405,4.02807,13.41739,5.66149,1.08321.3878,2.754-.708,4.10071-1.25411,1.72274-.69851,3.3367-2.01842,5.093-2.21381,5.036-.56033,5.91137-1.6172,4.78642-6.84768C490.555,486.529,490.81645,486.04038,491.11427,484.67088Zm-31.927,28.1008c.34378,1.99572.27749,3.9337,1.03834,5.45934a24.58,24.58,0,0,0,4.124,5.62688,28.81091,28.81091,0,0,0,4.43726,3.4312c.7442.53317,1.90477.734,2.32964,1.42286,2.30839,3.74252,3.54887,3.97471,6.76479,1.12171.75665-.67126,1.82964-.97977,2.61086-1.63069,1.97706-1.64735,4.37277-3.0915,5.64265-5.19535,1.05065-1.74066.73294-4.30731,1.08683-7.00575a81.53361,81.53361,0,0,1-8.12286,2.45792,18.562,18.562,0,0,1-7.02844.32814c-2.50011-.50391-4.83417-1.89794-7.196-2.99994C463.2291,515.02036,461.65891,514.09194,459.18723,512.77168Zm67.226-249.65314c2.28969,1.26252,2.03954,3.09233,1.20872,5.40252-.42881,1.19229.234,2.9064.72331,4.2699.77307,2.154,1.89618,4.18,2.72358,6.31732,1.05819,2.73326,5.06233,4.74783,7.5079,3.18074,1.04916-.67235,1.1883-2.80279,1.68756-4.28861,1.43425-4.26836,2.84126-8.54589,4.129-12.428C538.09351,264.71261,532.28588,263.92,526.41323,263.11854Zm-11.48777,50.04858c-1.41989,3.66527-3.63843,7.25126-4.01239,11.02032-.3114,3.1375-.14808,7.00159,4.59515,8.67377,2.78176.98073,5.29488.83747,7.91,1.25113,5.36252.84812,9.08243.60572,9.96941-5.4285C523.61509,328.01683,517.34509,323.28828,514.92546,313.16712Zm5.39161-11.01319q-.57763.31124-1.15518.6225c1.09393,4.80491,1.64235,9.83679,3.508,14.32066.95857,2.30371,4.19551,3.73507,6.5546,5.33742a3.99967,3.99967,0,0,0,3.024.37471c.476-.13932.719-1.4997.84141-2.34143.32612-2.24136.47631-4.50818.79445-6.75095.50654-3.56929,1.09263-7.12727,1.68906-10.97415-2.82312,1.12-4.5198,4.19709-7.87468,2.40912A72.349,72.349,0,0,0,520.31707,302.15393ZM456.474,544.10934c-2.52175,3.5169-1.83424,6.21393,1.65015,8.57643,2.35917,1.5995,4.44106,3.60714,6.65286,5.42508.60681.49874,1.42847,1.50987,1.82149,1.36837,2.412-.86779,3.6439.886,5.16222,2.02884,1.99121,1.49865,7.2273,1.80129,8.532.55919,2.81172-2.67688,4.43445-5.75848,3.60118-9.76368C476.30013,555.64154,461.91633,552.35036,456.474,544.10934Zm69.13647-264.78245a12.89518,12.89518,0,0,0-1.129,2.41543c-.21494.87944-.00509,1.85636-.17349,2.75459-.49725,2.65432-1.37792,5.26952-1.57506,7.93939a7.14307,7.14307,0,0,0,5.98743,7.5203,4.21528,4.21528,0,0,0,2.54317-.65387c3.9755-2.43075,7.26-5.41895,7.229-10.4638a60.85375,60.85375,0,0,1-7.4237-2.20216C528.11114,285.377,526.37722,282.94026,525.61046,279.32689Zm-19.67719,70.08785c8.57494,1.081,15.31564-2.58238,21.88443-9.46831-3.99329,0-7.42738.62732-10.48961-.17134-3.25395-.8486-6.15522-3.04922-8.92507-4.50906C507.56353,340.07519,506.77267,344.60589,505.93327,349.41474Zm25.10148-120.08047c0,1.935-.01033,3.43181.00193,4.9284.04259,5.18317,2.718,9.95886,6.61067,11.28823,1.10323.37676,2.511-.25774,3.73884-.10449a6.4365,6.4365,0,0,0,7.57677-5.69228c.239-1.60165.4239-3.21136.62841-4.77845C538.60048,237.76121,535.07772,236.295,531.03475,229.33427Zm-40.3797,147.82488c1.10419,1.8823,2.251,3.1672,2.65121,4.65315.96216,3.57192,3.257,4.27008,6.3557,3.3463,3.45652-1.03055,6.92487-2.08878,10.25645-3.45583,5.42824-2.22734,6.72571-3.98609,6.80939-8.80139-7.83656,3.89923-15.60408,9.14605-23.76475,1.11024C491.976,375.35772,491.0815,376.57757,490.65505,377.15915Zm-3.01378,6.642q-.3839.33868-.7679.67748c.50145,2.05342.929,4.12835,1.51951,6.15587,1.3518,4.64194,4.06066,6.87086,7.90692,6.60279a34.626,34.626,0,0,1,4.19017-.33778c7.18966.38562,10.38113-2.31816,11.42477-10.51436a70.95605,70.95605,0,0,0-7.86232,3.20488c-6.08495,3.37044-12.11268,1.6243-14.98417-4.52106C488.8209,384.53974,488.12748,384.21887,487.64127,383.80119ZM533.711,208.534c-.7134,2.64266-1.16552,4.15507-1.51346,5.69114-.12845.56734-.26777,1.43614.03321,1.75,3.0794,3.21172,2.88988,7.62593,4.43112,11.37528.63086,1.53466,2.61116,3.3993,4.09072,3.50318,2.52827.17747,5.15477-.87651,7.72073-1.49357a25.30319,25.30319,0,0,0,2.99-1.17118c.05608-.49063.182-1.59276.31035-2.71631-5.881.36665-10.13966-1.86661-12.09779-5.91908C537.98127,216.04638,535.97714,212.68886,533.711,208.534Zm11.67774,48.911c.269-1.5978.44782-2.9832.7545-4.33978a9.479,9.479,0,0,1,.81057-1.79415,8.40663,8.40663,0,0,0-2.56035-.75643c-2.64551.1002-5.34377.86595-7.9092.52573-3.58041-.47482-7.42343-1.2029-8.23882-6.68379-1.447,4.46695-1.744,8.10454.83107,11.1684C533.96109,261.37644,539.89332,259.03282,545.38876,257.445ZM506.89131,401.84189c-3.99442.32656-7.00023.34229-9.91657.86061-5.41615.96255-10.01384-1.49546-11.89644-6.59968a38.74715,38.74715,0,0,0-1.96146-3.84135c-3.077,5.778,1.58969,8.73375,3.17728,12.503.95865,2.27589,2.98276,3.31243,5.75146,2.99871,1.62991-.18479,3.35576.74582,5.05007.79765,2.603.0796,5.66692.61846,7.67307-.53589C506.21383,407.19333,506.25519,403.92212,506.89131,401.84189ZM469.6885,439.25846c-.61115,2.10564-1.10489,3.80678-1.41472,4.87435,3.47352,2.17087,6.86832,4.50643,10.48265,6.42912a5.42506,5.42506,0,0,0,4.36926.124c4.37758-2.27168,8.55513-4.92854,12.80751-7.44131C486.9857,443.983,478.042,444.07647,469.6885,439.25846Zm67.69564-247.114a17.3771,17.3771,0,0,1-.48375,2.26738,15.02826,15.02826,0,0,0,2.06389,13.304c2.02613,3.07538,4.42744,5.81508,5.64142,9.41447.86122,2.55355,3.69248,3.3208,6.14611,1.68813-5.36892-3.897-6.53506-9.47488-6.42615-15.606a5.936,5.936,0,0,0-.93166-3.32746C541.52419,197.22765,539.42131,194.73429,537.38414,192.14442Z"/><path style="fill: var(--copy)" d="M424.37246,764.126c3.71544.30658,7.48525.31666,11.13423.98573,6.2024,1.13722,12.14541,2.96085,18.74438,2.06923,4.6149-.62359,9.50656.92816,14.28785,1.36267a63.54558,63.54558,0,0,0,9.22977.37265c6.689-.37178,13.35706-1.17744,20.04746-1.4099,1.09333-.03794,2.257,1.94639,3.38818,2.99608-1.6809,1.06441-3.28855,2.85966-5.05839,3.03709-3.40781.34154-6.927-.55841-10.36423-.351-5.40572.32621-10.76981,1.34988-16.17558,1.66408-2.6916.15632-5.431-.66135-8.15887-.94095a83.0919,83.0919,0,0,0-10.2112-.82258c-6.32415.13862-12.361-1.20512-18.39136-2.79271-2.03007-.5344-4.19262-.75967-6.06769-1.62045-1.24652-.57216-2.09079-2.02069-3.11515-3.077Z"/><path style="fill: var(--copy)" d="M506.3344,724.17582c.05537-3.34367,2.70571-5.65342,6.50964-5.67331,3.84057-.02006,7.77681,4.289,7.55706,8.40268-.19215,3.59619-3.84714,6.45532-8.34064,6.573C508.56442,733.56966,506.244,729.63622,506.3344,724.17582Z"/><path style="fill: var(--copy)"  d="M416.1324,724.31715c-.18181,3.65893-4.07924,6.625-8.34143,6.34816-2.79056-.18119-5.6758-5.02448-5.453-9.15375.14138-2.62072,3.656-6.56511,5.82674-6.53926C412.03284,715.01839,416.34326,720.07389,416.1324,724.31715Z"/><path style="fill: var(--copy)" d="M461.539,736.55408c-.33856-2.68722-1.02406-5.8036,2.64354-6.26615a3.09083,3.09083,0,0,1,2.57673,1.43277c1.71214,5.22531.45589,10.408-1.16569,15.35392-.44165,1.347-2.8972,2.27155-4.6104,2.86386a3.396,3.396,0,0,1-3.08387-1.01946c-.46018-.69018.04442-2.17481.38969-3.22214C459.30153,742.62589,460.44616,739.59853,461.539,736.55408Z"/></svg>
